<svg width="128" height="150" viewBox="0 0 128 150" fill="none" xmlns="http://www.w3.org/2000/svg">
<path d="M127.5 86.6311C127.5 97.731 124.6 108.231 119.6 117.331C108.8 136.731 88.0999 149.931 64.1999 149.931C40.3999 149.931 19.5999 136.731 8.7999 117.331C3.7999 108.231 0.899902 97.831 0.899902 86.6311C0.899902 51.6311 29.2999 23.3311 64.1999 23.3311C99.1999 23.3311 127.5 51.731 127.5 86.6311Z" fill="#233973"/>
<path d="M108.4 52.1312C108.3 51.0312 108.2 50.0312 108 49.0312C107.2 42.8312 105.9 37.0312 103.7 32.1312C103.4 31.3312 103 30.5312 102.6 29.8312C98.5999 22.1312 94.2999 17.1312 90.1999 13.9312C89.9999 13.8312 89.8999 13.7312 89.6999 13.5312C89.4999 13.3312 89.1999 13.1312 88.9999 12.9312C80.5999 6.73117 73.4999 7.83117 73.4999 7.83117C72.9999 7.53117 72.4999 7.23117 71.9999 6.93117C45.8999 -9.16883 34.2999 6.53117 28.9999 16.2312C22.3999 28.6312 20.7999 41.7312 19.4999 53.1312C16.4999 84.1312 24.8999 106.931 24.8999 106.931H105.2C105.2 106.931 110.9 77.3312 108.4 52.1312Z" fill="#262628"/>
<path d="M84.6996 106.031C84.6996 106.031 97.9996 59.5309 87.4996 38.1309C81.8996 26.7309 70.0996 27.5309 60.2996 30.7309C56.2996 32.0309 53.6996 38.6309 50.5996 44.2309C47.0996 50.5309 43.2996 56.2309 43.0996 63.6309C42.6996 79.7309 43.4996 99.3309 48.7996 109.131C58.6996 127.431 84.6996 106.031 84.6996 106.031Z" fill="#757575"/>
<path d="M119.6 117.331C108.8 136.731 88.0998 149.931 64.1998 149.931C40.3998 149.931 19.5998 136.731 8.7998 117.331C9.6998 113.131 11.5998 109.131 16.0998 105.931C17.8998 104.631 19.9998 103.531 22.5998 102.531C27.3998 100.331 33.3998 98.4313 38.7998 97.0313C43.9998 95.4313 49.2998 94.0313 54.1998 93.4313C57.8998 93.0313 61.2998 92.9313 64.2998 92.9313C67.2998 92.8313 70.7998 92.9313 74.3998 93.4313C79.3998 94.0313 84.5998 95.4313 89.7998 97.0313C95.1998 98.5313 101.2 100.331 106 102.531C108.5 103.531 110.7 104.731 112.4 105.931C116.8 109.131 118.7 113.131 119.6 117.331Z" fill="#262628"/>
<path d="M93.9998 46.3316C93.9998 46.2316 93.8998 46.2316 93.7998 46.1316C93.7998 46.1316 93.6998 46.0316 93.5998 46.0316C93.5998 46.0316 93.4998 46.0316 93.3998 46.0316H93.2998H93.1998C92.8998 45.9316 92.4998 46.0316 92.0998 46.0316C91.1998 46.1316 90.2998 46.5316 90.1998 46.5316C90.1998 46.5316 88.9998 24.8316 65.3998 19.4316C65.3998 19.4316 50.9998 30.8316 42.4998 58.1316C42.4998 58.1316 41.6998 59.4316 41.3998 65.9316C40.7998 73.6316 51.4998 78.9316 53.3998 80.0316C53.5998 80.2316 58.6998 83.4316 46.1998 104.732C28.3998 135.032 64.1998 134.732 65.7998 134.732C96.0998 133.432 87.7998 110.932 79.9998 98.1316C72.8998 86.5316 73.7998 81.7316 73.9998 80.3316L74.5998 80.1316C74.6998 80.1316 74.7998 80.0316 74.8998 80.0316C74.8998 80.0316 74.8998 80.0316 74.9998 80.0316C75.0998 79.9316 75.2998 79.9316 75.3998 79.8316C75.3998 79.8316 75.3998 79.8316 75.4998 79.8316C75.7998 79.6316 76.2998 79.4316 76.6998 79.1316C76.6998 79.1316 76.6998 79.1316 76.7998 79.1316C77.4998 78.6316 78.3998 78.0316 79.2998 77.3316C82.0998 75.0316 85.4998 71.3316 88.3998 65.6316V65.5316C88.5998 65.1316 88.7998 64.8316 88.8998 64.4316C88.8998 64.3316 88.9998 64.2316 88.9998 64.1316C89.3998 63.3316 89.7998 62.4316 90.0998 61.5316C90.0998 61.4316 90.1998 61.4316 90.1998 61.3316C90.3998 60.8316 90.5998 60.4316 90.6998 59.9316C90.6998 59.9316 90.6998 59.9316 90.6998 59.8316C90.8998 59.3316 91.0998 58.7316 91.1998 58.2316C91.4998 58.0316 95.9998 49.1316 93.9998 46.3316Z" fill="#F9F9F9"/>
<path d="M74.0999 80.1307L74.1999 80.2307C74.1999 80.2307 51.5999 79.0307 53.3999 80.0307C53.3999 80.1307 54.1999 80.6307 54.4999 82.4307C56.5999 82.5307 61.1999 82.9307 63.4999 82.9307C65.7999 83.0307 72.4999 83.0307 73.5999 82.7307L73.7999 82.6307C73.8999 81.3307 73.9999 80.5307 74.0999 80.1307Z" fill="#E8E8E8"/>
</svg>
