<svg width="130" height="150" viewBox="0 0 130 150" fill="none" xmlns="http://www.w3.org/2000/svg">
<path d="M129.1 85.7316C129.1 94.9316 127.1 103.732 123.6 111.632C113.6 134.232 91 149.932 64.8 149.932C38.5 149.932 15.8 134.132 5.89999 111.532C2.39999 103.632 0.5 94.9316 0.5 85.7316C0.5 50.2316 29.3 21.4316 64.8 21.4316C100.3 21.4316 129.1 50.2316 129.1 85.7316Z" fill="#EAEAEA"/>
<path d="M123.6 111.632C113.6 134.232 90.9999 149.932 64.7999 149.932C38.4999 149.932 15.7999 134.132 5.8999 111.532C14.8999 107.032 35.1999 97.1316 38.2999 95.6316C38.4999 95.5316 38.5999 95.5316 38.6999 95.4316H38.7999C38.7999 95.4316 48.8999 113.932 63.4999 114.332C63.8999 114.332 64.1999 114.332 64.4999 114.232C64.4999 114.232 64.6999 114.332 64.9999 114.232C65.0999 114.232 65.1999 114.232 65.2999 114.332C81.8999 114.232 89.8999 95.4316 89.8999 95.4316C89.8999 95.4316 89.8999 95.4316 89.9999 95.4316C90.0999 95.5316 90.4999 95.6316 90.9999 95.9316C95.6999 98.2316 115.3 107.532 123.6 111.632Z" fill="#ADADAD"/>
<path d="M81.9997 78.7314V82.5314C76.8997 85.8314 69.1997 89.1314 65.0997 88.9314C60.7997 88.7314 53.3997 86.1314 48.1997 82.7314V78.9314C53.1997 82.2314 60.3997 84.8314 64.6997 85.1314C64.7997 85.1314 64.8997 85.1314 64.9997 85.1314H65.0997C69.1997 85.2314 76.8997 82.0314 81.9997 78.7314Z" fill="#E8E8E8"/>
<path d="M93 42.8318C94 34.5318 94.6 26.5318 94.8 19.6318C94.5 17.1318 93.4 14.6318 91.6 12.1318C86.9 5.93184 77.4 0.631836 65.1 0.631836C65 0.631836 64.8 0.631836 64.7 0.631836C56.2 0.731836 49.3 3.33184 44.3 6.93184C39.3 10.5318 36.2 15.2318 35.5 19.5318C36.2 27.5318 37.1 35.2318 38.1 42.7318C36.8 43.3318 36.1 45.1318 36.3 47.0318C36.6 48.9318 37.8 50.4318 39.2 50.7318C40.4 58.7318 41.8 66.5318 43.4 74.4318C44.4 75.9318 46.1 77.4318 48.3 78.9318V88.4318C45.5 90.5318 40.8 94.3318 38.8 95.3318C38.8 95.3318 38.8 95.3318 38.7 95.3318H38.8C38.8 95.3318 48.9 113.832 63.5 114.232C63.9 114.232 64.2 114.232 64.5 114.132C64.5 114.132 64.7 114.232 65 114.132C65.1 114.132 65.2 114.132 65.3 114.232C81.9 114.232 89.9 95.4318 89.9 95.4318C89.9 95.4318 89.9 95.4318 90 95.4318C90 95.4318 90 95.4318 89.9 95.4318C89.2 95.1318 84.9 91.5318 81.9 89.1318V78.7318C84.3 77.2318 86.1 75.6318 86.8 74.4318C88.9 67.1318 90.6 58.9318 91.8 50.7318C93.2 50.4318 94.3 48.9318 94.6 47.1318C94.9 45.2318 94.2 43.5318 93 42.8318Z" fill="#FCFCFC"/>
<path d="M65.0999 0.431641C47.6999 0.431641 35.3999 10.7316 35.0999 19.6316C34.8999 24.9316 36.0999 30.2316 36.6999 35.5316C36.9999 38.4316 37.8999 41.7316 38.1999 44.5316C38.1999 42.9316 37.4999 21.1316 47.2999 21.1316C53.2999 21.1316 55.3999 24.1316 65.4999 24.1316C75.5999 24.1316 77.6998 21.1316 83.6998 21.1316C92.7999 21.1316 92.7999 39.5316 92.7999 43.6316C93.0999 40.8316 93.8999 37.8316 94.0999 35.1316C94.5999 29.4316 95.1999 24.1316 94.9999 19.4316C94.6999 10.7316 82.3999 0.431641 65.0999 0.431641Z" fill="#ADADAD"/>
</svg>
