<svg width="127" height="150" viewBox="0 0 127 150" fill="none" xmlns="http://www.w3.org/2000/svg">
<g clip-path="url(#clip0_1680_5382)">
<path d="M126.617 86.7313C126.617 51.7891 98.2877 23.4609 63.3455 23.4609C28.4033 23.4609 0.0751953 51.7891 0.0751953 86.7313C0.0751953 121.673 28.4033 150 63.3455 150C98.2877 150 126.617 121.673 126.617 86.7313Z" fill="#EAEAEA"/>
<mask id="mask0_1680_5382" style="mask-type:luminance" maskUnits="userSpaceOnUse" x="0" y="23" width="127" height="127">
<path d="M126.617 86.7313C126.617 51.7891 98.2877 23.4609 63.3455 23.4609C28.4033 23.4609 0.0751953 51.7891 0.0751953 86.7313C0.0751953 121.673 28.4033 150 63.3455 150C98.2877 150 126.617 121.675 126.617 86.7313Z" fill="white"/>
</mask>
<g mask="url(#mask0_1680_5382)">
<path d="M23.9906 106.976C23.9906 106.976 8.16713 64.3617 28.314 16.3133C28.314 16.3133 45.5843 -9.77893 72.7562 7.89138C72.7562 7.89138 89.0749 5.33513 101.784 29.8226C114.497 54.3133 104.269 106.976 104.269 106.976H23.9906Z" fill="#939393"/>
<path d="M83.8049 106.106C83.8049 106.106 97.1018 59.6074 86.5784 38.2183C80.9643 26.8058 69.1705 27.5715 59.383 30.7699C55.3424 32.0918 52.8221 38.6683 49.7096 44.3168C46.2284 50.6183 42.3705 56.323 42.1752 63.748C41.7596 79.873 42.5502 99.4449 47.8455 109.209C57.7659 127.501 83.8065 106.107 83.8065 106.107L83.8049 106.106Z" fill="#757575"/>
<path d="M120.384 149.999C120.384 149.999 120.35 138.071 120.169 135.598L119.653 125.912C119.186 118.738 118.778 111.326 111.42 106.037C109.688 104.79 107.566 103.663 104.972 102.683C100.197 100.479 94.1892 98.6351 88.7563 97.2257C83.6001 95.6366 78.336 94.2726 73.397 93.6476C69.7767 93.1897 66.347 93.0648 63.3438 93.1038C60.3438 93.0632 56.9126 93.1897 53.2923 93.6476C48.3532 94.2726 43.0892 95.6366 37.9313 97.2257C32.5001 98.6351 26.4938 100.479 21.7173 102.683C19.122 103.663 17.0001 104.79 15.2673 106.037C7.91104 111.326 7.50166 118.738 7.03447 125.912L6.51885 135.601C6.33916 138.073 6.30322 149.999 6.30322 149.999H120.381H120.384Z" fill="#ADADAD"/>
<path d="M73.3361 80.2746C73.3361 80.2746 85.0158 75.8543 90.5908 58.0809C90.5908 58.0809 94.7986 49.2027 92.6924 46.5887C92.1736 45.9449 89.3846 46.5887 89.3846 46.5887C89.3846 46.5887 88.1439 24.8887 64.5861 19.5137C64.5861 19.5137 50.1518 30.8809 41.6611 58.2184C41.6611 58.2184 40.8471 59.4434 40.5689 66.0137C40.2439 73.7699 50.6314 79.048 52.5846 80.0777C52.7018 80.2871 57.9221 83.3902 45.3611 104.798C27.6002 135.064 63.3424 134.836 64.9971 134.762C95.2986 133.439 87.0127 110.996 79.1564 98.1855C71.8252 86.2262 73.0096 81.4918 73.1908 80.2121L73.3393 80.273L73.3361 80.2746Z" fill="#F9F9F9"/>
<path d="M18.8533 53.2074C20.0721 41.7855 21.7033 28.6808 28.3143 16.3136C33.644 6.34018 45.5846 -9.77857 72.7565 7.89174C72.7565 7.89174 89.0752 5.33549 101.785 29.823C104.961 35.9464 106.706 43.8277 107.536 52.2089C108.244 59.3792 101.005 64.773 90.3877 68.1886C90.3877 68.1886 93.8018 48.6183 93.2112 48.7902C79.5987 52.7652 56.5987 73.6074 42.0815 71.0667C41.9721 71.048 42.0862 72.5355 42.0862 72.5355C28.0783 70.0183 17.7174 63.8386 18.8549 53.2074H18.8533Z" fill="#A3A3A3"/>
<g style="mix-blend-mode:multiply">
<path d="M73.189 80.2138L73.3374 80.2747C73.3374 80.2747 50.7562 79.1153 52.5843 80.0794C52.6296 80.1591 53.414 80.6638 53.6734 82.4403C55.7937 82.5888 60.3765 82.92 62.7124 82.9716C65.0468 83.0247 71.6937 83.0888 72.778 82.7544H72.7827C72.7937 82.7513 72.7999 82.7466 72.8109 82.7435L73.0249 82.6638C72.9718 81.4028 73.1343 80.6263 73.1921 80.2138H73.189Z" fill="#E8E8E8"/>
</g>
<path d="M41.6595 58.2203C41.6595 58.2203 41.0689 59.6625 40.5673 66.0156C39.9548 73.7562 50.6298 79.05 52.583 80.0797C52.6408 80.1828 59.3845 80.55 64.5861 80.7219C64.8814 80.7312 65.1189 80.7141 65.4033 80.7219V21.1641L64.5861 19.5156C64.5861 19.5156 50.1517 30.8828 41.6611 58.2203H41.6595Z" fill="#F9F9F9"/>
<path d="M93.1453 46.4277C92.4703 45.4574 89.3844 46.5887 89.3844 46.5887C89.3844 46.5887 88.1438 24.8887 64.5859 19.5137V80.7199C68.5766 80.8387 71.6922 80.8371 72.7766 80.5027H72.7813C72.7922 80.4996 72.7984 80.4949 72.8094 80.4918L73.7969 80.1262C75.9172 79.3715 85.6969 73.6918 90.5938 58.0793C90.5938 58.0793 95.0656 49.1824 93.1484 46.4262L93.1453 46.4277Z" fill="#F9F9F9"/>
</g>
<path d="M18.8533 53.2074C20.0721 41.7855 21.7033 28.6808 28.3143 16.3136C33.644 6.34018 45.5846 -9.77857 72.7565 7.89174C72.7565 7.89174 89.0752 5.33549 101.785 29.823C104.961 35.9464 106.706 43.8277 107.536 52.2089C108.244 59.3792 101.005 64.773 90.3877 68.1886C90.3877 68.1886 93.8018 48.6183 93.2112 48.7902C79.5987 52.7652 56.5987 73.6074 42.0815 71.0667C41.9721 71.048 42.0862 72.5355 42.0862 72.5355C28.0783 70.0183 17.7174 63.8386 18.8549 53.2074H18.8533Z" fill="#939393"/>
<path d="M41.6595 58.2203C41.6595 58.2203 41.0689 59.6625 40.5673 66.0156C39.9548 73.7562 50.6298 79.05 52.583 80.0797C52.6408 80.1828 59.3845 80.55 64.5861 80.7219C64.8814 80.7312 65.1189 80.7141 65.4033 80.7219V21.1641L64.5861 19.5156C64.5861 19.5156 50.1517 30.8828 41.6611 58.2203H41.6595Z" fill="#F9F9F9"/>
<path d="M93.1453 46.4277C92.4703 45.4574 89.3844 46.5887 89.3844 46.5887C89.3844 46.5887 88.1438 24.8887 64.5859 19.5137V80.7199C68.5766 80.8387 71.6922 80.8371 72.7766 80.5027H72.7813C72.7922 80.4996 72.7984 80.4949 72.8094 80.4918L73.7969 80.1262C75.9172 79.3715 85.6969 73.6918 90.5938 58.0793C90.5938 58.0793 95.0656 49.1824 93.1484 46.4262L93.1453 46.4277Z" fill="#FCFCFC"/>
</g>
<defs>
<clipPath id="clip0_1680_5382">
<rect width="126.542" height="150" fill="white" transform="translate(0.0751953)"/>
</clipPath>
</defs>
</svg>
