<svg width="368" height="394" viewBox="0 0 368 394" fill="none" xmlns="http://www.w3.org/2000/svg">
<path d="M345.078 167.542C336.285 110.089 300.233 39.5029 229.008 32.1167C229.008 32.1167 174.932 25.5506 121.623 35.5024C89.9851 41.4083 62.2425 58.99 44.6884 84.2581C27.1343 109.527 21.2709 140.339 28.3864 169.714C33.0085 188.793 36.1321 208.541 35.2745 228.145C33.7831 262.267 34.6407 294.117 67.8137 314.465C97.4325 332.633 134.709 348.659 170.272 351.465C194.44 353.373 221.543 350.286 244.837 344.004C363.544 311.995 353.872 224.994 345.078 167.541V167.542Z" fill="#F4F7FA"/>
<mask id="mask0_1680_5960" style="mask-type:luminance" maskUnits="userSpaceOnUse" x="9" y="47" width="187" height="282">
<path d="M195.015 47.249H9.48145V328.931H195.015V47.249Z" fill="white"/>
</mask>
<g mask="url(#mask0_1680_5960)">
<mask id="mask1_1680_5960" style="mask-type:luminance" maskUnits="userSpaceOnUse" x="9" y="132" width="150" height="258">
<path d="M111.832 382.156C123.225 340.57 93.7856 327.517 81.9373 319.688C64.0693 307.881 51.6557 287.632 71.477 272.617C91.2971 257.602 60.4827 218.012 29.8463 204.199C-0.13343 190.681 -3.19442 114.68 63.2851 136.312C102.987 149.23 107.419 200.65 114.339 226.398C121.26 252.145 150.866 247.141 147.251 281.56C144.164 310.961 139.571 346.864 155.678 362.597C171.785 378.33 106.247 402.538 111.832 382.156Z" fill="white"/>
</mask>
<g mask="url(#mask1_1680_5960)">
<path d="M29.8462 204.199C60.4826 218.012 85.9892 252.63 68.7827 272.22C53.5752 289.532 64.0692 307.882 81.9372 319.689C90.8303 325.565 109.633 334.386 113.643 356.003C114.953 355.546 107.613 392.966 109.048 393.072C115.448 393.544 126.583 386.086 128.361 394.002L161.785 372.394C159.309 364.113 154.541 356.942 148.035 350.587C131.928 334.854 144.164 310.963 147.251 281.563C150.865 247.144 121.26 252.148 114.339 226.401C107.419 200.653 102.986 149.232 63.285 136.314C-3.19573 114.68 -0.134732 190.681 29.8462 204.199Z" fill="url(#paint0_linear_1680_5960)"/>
<g style="mix-blend-mode:soft-light">
<path d="M66.6238 191.936C36.3362 178.059 14.3452 194.24 14.1203 194.409L14.5701 195.351C14.7962 195.18 37.3934 178.574 68.2692 193.833C91.0757 220.631 106.359 258.5 116.332 292.631C120.231 305.974 123.511 319.341 126.264 332.187C106.021 287.981 54.9511 287.975 54.4676 288.094L54.6541 289.156C55.1688 289.096 108.322 288.834 127.146 336.372C129.631 348.349 131.659 359.81 133.303 370.294L134.135 370.355C132.477 359.762 130.427 348.167 127.911 336.047H127.912C127.912 336.047 127.91 336.042 127.91 336.039C126.5 329.25 124.944 322.296 123.226 315.258C121.88 282.527 143.25 254.451 143.465 254.171L142.866 253.379C142.656 253.651 122.55 280.061 122.348 311.721C120.737 305.295 118.991 298.814 117.1 292.338C107.675 260.083 96.2271 233.219 82.9884 212.229L83.0726 212.223C79.3525 176.31 59.423 128.988 59.2221 128.514L58.5125 128.978C58.7097 129.444 78.0259 175.312 82.0996 210.828C79.6676 207.043 77.1779 203.451 74.6281 200.063C53.5668 172.065 28.457 157.673 0 157.286L0.0553264 158.361C27.2242 158.731 49.0938 172.063 66.6238 191.937V191.936ZM154.618 355.96C152.668 358.94 149.006 364.541 145.549 371.195L146.537 371.268C149.883 364.915 153.376 359.571 155.258 356.695C156.15 355.33 156.517 354.765 156.619 354.511L155.887 353.954C155.812 354.133 155.259 354.979 154.617 355.959L154.618 355.96Z" fill="#BEB8F2"/>
</g>
</g>
<path d="M78.951 249.723C80.5795 247.385 78.6094 255.952 81.4142 255.17C87.1778 253.564 85.7681 259.638 100.667 251.594L145.129 239.203C138.131 226.735 123.969 216.013 118.447 209.891C106.795 196.973 102.995 190.906 109.791 155.601C124.398 108.312 116.394 69.69 95.7943 63.0878C74.923 56.398 61.0649 75.0471 60.4274 97.6979C60.0197 112.19 44.5728 107.485 41.6056 126.731C39.0017 143.624 59.0335 163.794 67.5766 175.881C89.8924 207.451 78.6804 228.627 78.951 249.724V249.723Z" fill="url(#paint1_linear_1680_5960)"/>
<mask id="mask2_1680_5960" style="mask-type:luminance" maskUnits="userSpaceOnUse" x="41" y="61" width="109" height="223">
<path d="M89.7783 278.368C62.3413 245.23 99.6998 221.323 67.5756 175.878C59.0313 163.791 39.0007 143.621 41.6047 126.728C44.5719 107.484 60.0188 112.188 60.4265 97.6949C61.0639 75.0442 74.922 56.3951 95.7933 63.0849C116.392 69.6883 124.397 108.311 109.79 155.598C102.995 190.904 106.794 196.97 118.446 209.89C126.608 218.939 153.67 238.032 148.524 257.973C143.378 277.914 99.8899 290.582 89.7771 278.368H89.7783Z" fill="white"/>
</mask>
<g mask="url(#mask2_1680_5960)">
<g style="mix-blend-mode:soft-light">
<path d="M94.1917 191.616C97.0843 207.733 100.929 224.014 105.712 240.296C106.603 243.33 107.539 246.369 108.496 249.412L109.25 249.201C108.29 246.155 107.355 243.113 106.462 240.076C98.4903 212.93 93.1032 185.79 90.4524 159.412C89.857 153.49 89.4036 147.598 89.0812 141.747C91.5817 123.786 120.357 102.106 120.649 101.889L120.179 101.206C119.045 102.053 93.7731 121.097 88.9213 138.651C88.2621 124.619 88.3896 110.839 89.3146 97.4909C90.2828 83.5206 92.1025 70.1638 94.7245 57.7915C95.1779 55.6508 95.7589 53.4801 96.3206 51.3814C97.0783 48.5516 97.8613 45.6269 98.3532 42.701L97.5786 42.5293C97.0927 45.4156 96.3145 48.321 95.5628 51.1317C94.9975 53.2412 94.4142 55.4215 93.956 57.585C91.3255 69.9969 89.501 83.3933 88.5304 97.4033C88.3596 99.8753 88.2176 102.364 88.101 104.865C88.0962 104.955 87.9699 104.965 87.9542 104.876C84.619 86.581 78.0532 68.8299 75.7836 62.6936C75.3555 61.5362 75.0175 60.6225 74.985 60.464L74.2141 60.6021C74.2537 60.8098 74.4606 61.3741 75.0524 62.9721C77.4951 69.5767 84.9293 89.6737 87.9097 109.353H87.9218C87.5658 119.926 87.6908 130.729 88.291 141.677C88.291 141.684 88.2886 141.693 88.2874 141.701H88.2922C88.6158 147.589 89.0716 153.515 89.6694 159.473C90.4836 167.572 91.5577 175.743 92.8819 183.964C81.6398 150.602 43.1086 115.172 42.6912 114.792L42.1885 115.412C42.6359 115.819 86.9728 156.586 94.1713 191.622L94.1905 191.619L94.1917 191.616ZM137.424 224.777C137.323 224.955 132.835 232.955 128.558 243.82L129.514 243.554C133.696 233.064 138.004 225.395 138.103 225.22L137.424 224.776V224.777Z" fill="#FCFDFE"/>
</g>
</g>
</g>
<mask id="mask3_1680_5960" style="mask-type:luminance" maskUnits="userSpaceOnUse" x="211" y="46" width="148" height="259">
<path d="M257.56 296.472C245.909 254.957 275.268 241.723 287.069 233.822C304.863 221.906 317.152 201.579 297.238 186.687C277.325 171.795 307.894 132.016 338.445 118.013C368.341 104.312 370.933 28.2927 304.588 50.3336C264.967 63.4959 260.852 114.943 254.09 140.732C247.33 166.522 217.694 161.7 221.52 196.096C224.789 225.476 229.604 261.351 213.594 277.183C197.584 293.014 263.27 316.819 257.56 296.472Z" fill="white"/>
</mask>
<g mask="url(#mask3_1680_5960)">
<path d="M338.444 118.013C307.895 132.015 282.602 166.789 299.929 186.272C315.243 203.491 304.862 221.905 287.068 233.821C278.211 239.752 259.464 248.687 255.587 270.329C254.275 269.88 261.845 307.254 260.41 307.368C254.014 307.879 242.833 300.489 241.104 308.417L207.547 287.015C209.972 278.719 214.696 271.519 221.162 265.124C237.172 249.293 224.788 225.476 221.519 196.096C217.693 161.7 247.328 166.522 254.09 140.732C260.85 114.943 264.965 63.4959 304.587 50.3336C370.932 28.2927 368.34 104.312 338.444 118.013Z" fill="url(#paint2_linear_1680_5960)"/>
<g style="mix-blend-mode:soft-light">
<path d="M367.951 71.9924L368 70.9179C339.546 71.4798 314.526 86.0264 293.636 114.152C291.108 117.557 288.64 121.164 286.23 124.962C290.084 89.4229 309.118 43.4359 309.311 42.9689L308.599 42.5078C308.401 42.9833 288.765 90.4266 285.266 126.362L285.35 126.368C272.241 147.44 260.961 174.373 251.734 206.687C249.882 213.174 248.178 219.665 246.606 226.101C246.208 194.443 225.941 168.158 225.729 167.887L225.136 168.683C225.353 168.961 246.896 196.904 245.752 229.644C244.078 236.691 242.565 243.655 241.197 250.453C241.197 250.455 241.195 250.457 241.195 250.46H241.196C238.754 262.597 236.777 274.204 235.183 284.807L236.016 284.741C237.595 274.248 239.552 262.774 241.962 250.782C260.493 203.128 313.646 203.063 314.162 203.118L314.342 202.056C313.858 201.941 262.79 202.261 242.82 246.59C245.493 233.729 248.69 220.341 252.508 206.975C262.27 172.783 277.319 134.82 299.96 107.882C330.739 92.4341 353.44 108.9 353.666 109.07L354.11 108.126C353.885 107.958 331.794 91.913 301.592 105.976C318.999 85.9952 340.786 72.5279 367.952 71.9912L367.951 71.9924ZM213.329 268.543L212.601 269.105C212.704 269.359 213.074 269.921 213.975 271.281C215.874 274.145 219.402 279.468 222.787 285.8L223.773 285.721C220.274 279.087 216.578 273.51 214.61 270.541C213.963 269.565 213.404 268.722 213.328 268.543H213.329Z" fill="#BEB8F2"/>
</g>
</g>
<path d="M257.99 207.075C256.347 204.748 258.37 213.301 255.561 212.537C249.788 210.967 251.235 217.031 236.287 209.08L191.749 196.964C198.67 184.453 212.765 173.643 218.249 167.488C229.821 154.497 233.583 148.408 226.57 113.145C211.67 65.9474 219.436 27.2769 239.994 20.5475C260.823 13.7292 274.796 32.2918 275.573 54.939C276.071 69.428 291.488 64.6291 294.574 83.8557C297.283 100.732 277.376 121.025 268.908 133.164C246.787 164.871 258.13 185.977 257.99 207.076V207.075Z" fill="url(#paint3_linear_1680_5960)"/>
<mask id="mask4_1680_5960" style="mask-type:luminance" maskUnits="userSpaceOnUse" x="187" y="19" width="108" height="222">
<path d="M247.338 235.787C274.57 202.48 237.065 178.805 268.907 133.162C277.376 121.023 297.283 100.729 294.574 83.8533C291.488 64.6267 276.07 69.4267 275.573 54.9366C274.796 32.2894 260.822 13.7267 239.993 20.545C219.436 27.2744 211.67 65.9462 226.568 113.142C233.581 148.405 229.819 154.495 218.248 167.486C210.142 176.585 183.198 195.844 188.468 215.753C193.737 235.661 237.303 248.061 247.34 235.785L247.338 235.787Z" fill="white"/>
</mask>
<g mask="url(#mask4_1680_5960)">
<g style="mix-blend-mode:soft-light">
<path d="M242.41 149.067C249.392 113.988 293.476 72.9494 293.921 72.5388L293.415 71.9217C293 72.3047 254.689 107.972 243.652 141.402C244.926 133.173 245.949 124.996 246.713 116.892C247.275 110.931 247.695 105.001 247.981 99.112H247.986C247.986 99.1036 247.983 99.0952 247.982 99.088C248.515 88.136 248.573 77.3329 248.152 66.7615H248.164C251.023 47.0667 258.332 26.924 260.734 20.305C261.315 18.7022 261.518 18.1379 261.556 17.9302L260.784 17.7969C260.753 17.9554 260.42 18.8715 259.999 20.0313C257.766 26.182 251.31 43.9727 248.089 62.288C248.074 62.3769 247.947 62.3685 247.942 62.2784C247.81 59.7787 247.654 57.2911 247.466 54.819C246.409 40.8163 244.501 27.4306 241.794 15.0343C241.323 12.8744 240.725 10.6965 240.147 8.59064C239.378 5.78481 238.581 2.88413 238.077 0.00146484L237.304 0.177955C237.814 3.10024 238.616 6.02133 239.391 8.84637C239.966 10.9414 240.56 13.1085 241.027 15.2468C243.726 27.6035 245.627 40.9483 246.682 54.9127C247.689 68.2551 247.902 82.0333 247.33 96.0696C242.371 78.5455 216.981 59.6575 215.841 58.817L215.377 59.5026C215.669 59.7175 244.578 81.2205 247.19 99.166C246.903 105.019 246.486 110.914 245.928 116.839C243.441 143.233 238.222 170.404 230.417 197.599C229.544 200.642 228.626 203.69 227.686 206.742L228.441 206.947C229.38 203.899 230.297 200.854 231.169 197.815C235.85 181.504 239.595 165.201 242.388 149.066L242.407 149.069L242.41 149.067ZM198.688 182.938C198.787 183.11 203.142 190.753 207.389 201.217L208.348 201.477C204.004 190.637 199.466 182.666 199.363 182.488L198.688 182.936V182.938Z" fill="#FCFDFE"/>
</g>
</g>
<path d="M303.327 53.2677C303.345 48.7378 299.654 44.9787 295.066 44.8718L74.6471 39.7272C69.1685 39.5987 64.71 43.5295 64.71 48.5061V341.538C64.71 346.463 69.1445 350.041 74.5941 349.532L293.944 329.025C298.512 328.598 302.217 324.616 302.236 320.129L303.327 53.2677Z" fill="url(#paint4_linear_1680_5960)"/>
<path d="M312.819 52.8365C312.837 48.3066 309.146 44.5475 304.559 44.4407L84.1393 39.296C78.6607 39.1676 74.2021 43.0984 74.2021 48.0749V341.107C74.2021 346.032 78.6367 349.61 84.0863 349.101L303.436 328.594C308.004 328.167 311.709 324.184 311.728 319.698L312.819 52.8365Z" fill="url(#paint5_linear_1680_5960)"/>
<path d="M302.777 71.3022L301.872 302.481C301.862 304.866 299.891 306.962 297.46 307.167L91.7312 324.545C88.8662 324.787 86.5449 322.883 86.5449 320.289L86.5978 68.6476C86.5978 67.2177 87.2954 65.9438 88.4008 65.0938C89.3161 64.383 90.5044 63.9664 91.8094 63.9844L298.383 66.8911C300.823 66.9259 302.786 68.8986 302.777 71.3034V71.3022Z" fill="url(#paint6_linear_1680_5960)"/>
<g style="mix-blend-mode:soft-light" opacity="0.9">
<path d="M293.72 307.483L91.8873 324.532C89.0236 324.774 86.5447 322.883 86.5459 320.287L86.5988 68.6464C86.5988 67.2164 87.3746 65.9438 88.4799 65.0938C89.1426 66.5873 89.8968 68.0593 90.6677 69.5C113.378 111.938 158.737 83.606 188.617 125.42C211.984 158.118 193.835 189.438 220.202 225.704C241.029 254.343 259.689 244.242 278.644 271.804C285.94 282.412 290.678 294.825 293.72 307.483Z" fill="white"/>
</g>
<path d="M213.383 324.425C213.381 325.546 212.42 326.541 211.235 326.647L186.107 328.891C184.899 328.999 183.919 328.167 183.922 327.031C183.924 325.897 184.907 324.89 186.116 324.784L211.245 322.581C212.428 322.477 213.386 323.302 213.383 324.423V324.425Z" fill="url(#paint7_linear_1680_5960)"/>
<path style="mix-blend-mode:soft-light" d="M203.592 54.5775C203.587 56.8515 201.64 58.662 199.239 58.6224C196.834 58.5816 194.884 56.7002 194.889 54.4179C194.893 52.1355 196.852 50.325 199.257 50.373C201.659 50.421 203.598 52.3036 203.593 54.5775H203.592Z" fill="url(#paint8_linear_1680_5960)"/>
<mask id="mask5_1680_5960" style="mask-type:luminance" maskUnits="userSpaceOnUse" x="86" y="63" width="217" height="262">
<path d="M302.777 71.3022L301.872 302.481C301.862 304.866 299.891 306.962 297.46 307.167L91.7312 324.545C88.8662 324.787 86.5449 322.883 86.5449 320.289L86.5978 68.6476C86.5978 67.2177 87.2954 65.9438 88.4008 65.0938C89.3161 64.383 90.5044 63.9664 91.8094 63.9844L298.383 66.8911C300.823 66.9259 302.786 68.8986 302.777 71.3034V71.3022Z" fill="white"/>
</mask>
<g mask="url(#mask5_1680_5960)">
<g style="mix-blend-mode:soft-light" opacity="0.5">
<path d="M212.342 220.778L178.871 222.332L178.878 218.613L212.351 217.109L212.342 220.778Z" fill="white"/>
<path d="M212.128 310.347L178.706 313.084L178.713 309.377L212.136 306.688L212.128 310.347Z" fill="white"/>
</g>
<path d="M178.93 190.087L154.012 190.928L154.17 76.689L179.136 76.9507L178.93 190.087Z" fill="url(#paint9_linear_1680_5960)"/>
<g style="mix-blend-mode:soft-light">
<path d="M171.01 168.773L161.66 169.01L161.767 98.4995L171.128 98.5187L171.01 168.773Z" fill="white"/>
</g>
<path d="M154.161 76.689L141.22 83.4484V191.361L154.012 190.928L154.161 76.689Z" fill="url(#paint10_linear_1680_5960)"/>
<path d="M154.012 190.928L117.558 192.16L117.641 83.5337L154.161 83.8158L154.012 190.928Z" fill="url(#paint11_linear_1680_5960)"/>
<g style="mix-blend-mode:soft-light" opacity="0.9">
<path d="M154.144 95.9698L117.631 95.8593L117.634 92.0342L154.149 92.1987L154.144 95.9698Z" fill="white"/>
<path d="M154.134 102.254L117.626 102.232L117.63 98.4082L154.14 98.4838L154.134 102.254Z" fill="white"/>
</g>
<g style="mix-blend-mode:soft-light" opacity="0.9">
<path d="M154.031 176.725L117.568 177.756L117.571 173.942L154.036 172.965L154.031 176.725Z" fill="white"/>
<path d="M154.022 182.992L117.563 184.111L117.566 180.298L154.027 179.232L154.022 182.992Z" fill="white"/>
</g>
<path d="M117.558 192.16L91.4209 193.043L91.4582 76.0312L117.647 76.3062L117.558 192.16Z" fill="url(#paint12_linear_1680_5960)"/>
<g style="mix-blend-mode:soft-light" opacity="0.5">
<path d="M114.391 91.1685L95.2256 91.0761L95.2292 82.9312L114.397 83.0824L114.391 91.1685Z" fill="white"/>
</g>
<path d="M91.4579 76.0312L78.5176 82.7895V193.258L91.4207 193.043L91.4579 76.0312Z" fill="url(#paint13_linear_1680_5960)"/>
<path d="M292.222 186.26L269.472 187.029L269.84 77.9028L292.628 78.1418L292.222 186.26Z" fill="url(#paint14_linear_1680_5960)"/>
<g style="mix-blend-mode:soft-light">
<path d="M285.03 165.883L276.494 166.099L276.73 98.7349L285.274 98.7529L285.03 165.883Z" fill="white"/>
</g>
<path d="M269.79 77.9028L256.849 84.3429V187.73L269.753 187.029L269.79 77.9028Z" fill="url(#paint15_linear_1680_5960)"/>
<path d="M269.471 187.029L236.228 188.151L236.519 84.4521L269.817 84.7103L269.471 187.029Z" fill="url(#paint16_linear_1680_5960)"/>
<g style="mix-blend-mode:soft-light" opacity="0.9">
<path d="M269.778 96.3188L236.486 96.218L236.496 92.5669L269.79 92.717L269.778 96.3188Z" fill="white"/>
<path d="M269.757 102.322L236.468 102.302L236.479 98.6514L269.769 98.7198L269.757 102.322Z" fill="white"/>
</g>
<g style="mix-blend-mode:soft-light" opacity="0.9">
<path d="M269.517 173.46L236.266 174.4L236.276 170.759L269.529 169.868L269.517 173.46Z" fill="white"/>
<path d="M269.497 179.448L236.249 180.468L236.26 176.827L269.51 175.855L269.497 179.448Z" fill="white"/>
</g>
<path d="M236.228 188.152L212.42 188.956L212.687 77.3027L236.539 77.5537L236.228 188.152Z" fill="url(#paint17_linear_1680_5960)"/>
<g style="mix-blend-mode:soft-light" opacity="0.5">
<path d="M233.542 91.7425L216.087 91.6585L216.106 83.8857L233.564 84.0238L233.542 91.7425Z" fill="white"/>
</g>
<path d="M212.702 77.2607L199.761 83.6996V188.951L212.665 188.746L212.702 77.2607Z" fill="url(#paint18_linear_1680_5960)"/>
<path d="M302.301 195.415L86.5713 203.539L86.5737 192.392L302.342 185.175L302.301 195.415Z" fill="#D8DEE8"/>
<path d="M291.754 310.123L269.049 312.041L269.416 203.382L292.16 202.464L291.754 310.123Z" fill="url(#paint19_linear_1680_5960)"/>
<g style="mix-blend-mode:soft-light" opacity="0.9">
<path d="M292.127 211.155L269.387 212.154L269.399 208.567L292.14 207.6L292.127 211.155Z" fill="white"/>
<path d="M292.104 217.079L269.366 218.133L269.378 214.546L292.117 213.524L292.104 217.079Z" fill="white"/>
</g>
<g style="mix-blend-mode:soft-light" opacity="0.9">
<path d="M291.8 297.919L269.091 299.723L269.103 296.145L291.813 294.375L291.8 297.919Z" fill="white"/>
<path d="M291.778 303.825L269.07 305.684L269.082 302.108L291.791 300.282L291.778 303.825Z" fill="white"/>
</g>
<path d="M269.393 203.413L251.682 204.428L252.443 319.966L269.249 319.807L269.393 203.413Z" fill="url(#paint20_linear_1680_5960)"/>
<path d="M269.05 312.041L235.873 314.844L236.163 211.595L269.394 210.161L269.05 312.041Z" fill="url(#paint21_linear_1680_5960)"/>
<g style="mix-blend-mode:soft-light">
<path d="M259.245 295.718L245.972 296.747L246.174 228.862L259.462 228.193L259.245 295.718Z" fill="white"/>
</g>
<path d="M235.874 314.844L212.113 316.85L212.379 205.688L236.183 204.726L235.874 314.844Z" fill="url(#paint22_linear_1680_5960)"/>
<g style="mix-blend-mode:soft-light" opacity="0.5">
<path d="M233.193 219.003L215.772 219.806L215.792 212.067L233.214 211.319L233.193 219.003Z" fill="white"/>
</g>
<g style="mix-blend-mode:soft-light" opacity="0.5">
<path d="M232.945 309.046L215.55 310.472L215.569 302.758L232.966 301.385L232.945 309.046Z" fill="white"/>
</g>
<path d="M212.373 205.701L194.661 206.718L195.422 322.254L212.228 322.096L212.373 205.701Z" fill="url(#paint23_linear_1680_5960)"/>
<path d="M212.113 316.85L178.694 319.674L178.895 209.52L212.372 208.136L212.113 316.85Z" fill="url(#paint24_linear_1680_5960)"/>
<g style="mix-blend-mode:soft-light">
<path d="M185.862 319.064L178.543 319.674L178.577 209.49L185.905 209.23L185.862 319.064Z" fill="white"/>
</g>
<path d="M178.695 319.674L153.829 321.774L153.988 208.047L178.9 207.041L178.695 319.674Z" fill="url(#paint25_linear_1680_5960)"/>
<g style="mix-blend-mode:soft-light" opacity="0.9">
<path d="M178.885 216.133L153.976 217.228L153.98 213.473L178.891 212.414L178.885 216.133Z" fill="white"/>
<path d="M178.872 222.332L153.967 223.487L153.972 219.731L178.879 218.612L178.872 222.332Z" fill="white"/>
</g>
<g style="mix-blend-mode:soft-light" opacity="0.9">
<path d="M178.718 306.905L153.848 308.881L153.852 305.138L178.725 303.198L178.718 306.905Z" fill="white"/>
<path d="M178.707 313.084L153.839 315.121L153.844 311.378L178.714 309.377L178.707 313.084Z" fill="white"/>
</g>
<path d="M154.109 208.07L135.903 210.161V324.623L153.975 324.464L154.109 208.07Z" fill="url(#paint26_linear_1680_5960)"/>
<path d="M153.829 321.774L117.455 324.846L117.538 216.714L153.978 215.142L153.829 321.774Z" fill="url(#paint27_linear_1680_5960)"/>
<g style="mix-blend-mode:soft-light">
<path d="M143.044 304.729L128.491 305.857L128.56 234.774L143.13 234.042L143.044 304.729Z" fill="white"/>
</g>
<path d="M117.456 324.846L91.3789 327.049L91.415 210.575L117.545 209.52L117.456 324.846Z" fill="url(#paint28_linear_1680_5960)"/>
<g style="mix-blend-mode:soft-light" opacity="0.5">
<path d="M114.296 224.48L95.1748 225.361L95.1772 217.252L114.302 216.431L114.296 224.48Z" fill="white"/>
</g>
<g style="mix-blend-mode:soft-light" opacity="0.5">
<path d="M114.229 318.786L95.1377 320.353L95.1413 312.271L114.235 310.763L114.229 318.786Z" fill="white"/>
</g>
<path d="M91.5233 210.655L81.5381 211.67V327.208L91.379 327.049L91.5233 210.655Z" fill="url(#paint29_linear_1680_5960)"/>
</g>
<path d="M242.266 202.026L255.727 206.628L280.003 101.002C280.003 101.002 271.794 95.9891 267.125 94.3154L242.266 202.026Z" fill="url(#paint30_linear_1680_5960)"/>
<path d="M167.869 187.419L242.818 202.119L267.513 95.104C267.605 94.7078 267.339 94.326 266.939 94.2792L191.898 85.5063L167.869 187.419Z" fill="url(#paint31_linear_1680_5960)"/>
<path opacity="0.64" d="M194.608 89.6699L262.787 97.8353L239.795 197.358L172.313 184.324L194.608 89.6699ZM261.702 98.6037L195.211 90.5992L173.303 183.635L239.125 196.303L261.702 98.6037Z" fill="white"/>
<g style="mix-blend-mode:soft-light" opacity="0.3">
<path d="M211.138 101.588C212.729 112.201 206.788 114.868 207.222 127.132C208.106 152.087 233.531 159.958 233.76 182.265C233.804 186.504 232.935 192.35 228.807 199.373L242.817 202.121L267.512 95.1055C267.603 94.7093 267.337 94.3275 266.938 94.2807L204.365 86.9653C207.803 91.1471 210.3 95.9975 211.138 101.588Z" fill="white"/>
</g>
<path d="M167.809 187.648C167.719 187.58 167.793 187.424 167.905 187.447L242.266 202.026C245.263 202.626 255.571 206.59 255.571 206.59C256.698 207.259 253.399 208.851 252.131 208.57L176.381 193.852C176.266 193.827 176.161 193.776 176.067 193.707L175.58 193.338C175.403 193.205 175.334 192.967 175.408 192.748L175.758 191.717L170.622 188.993L169.181 188.677C169.167 188.674 169.153 188.668 169.143 188.659L167.808 187.648H167.809Z" fill="url(#paint32_linear_1680_5960)"/>
<path d="M169.183 188.677L242.49 203.508L252.05 206.982L175.409 192.749L169.183 188.677Z" fill="#EFEFEF"/>
<path d="M301.175 345.631C303.537 348.01 304.495 350.565 303.637 352.063C303.044 353.097 301.733 353.366 300.296 353.643C298.027 354.077 295.663 353.959 290.8 352.59C286.261 351.31 283.593 350.558 283.591 349.469C283.588 348.45 285.923 347.659 287.971 346.965C290.867 345.983 293.409 345.705 295.153 345.632H301.176L301.175 345.631Z" fill="url(#paint33_linear_1680_5960)"/>
<path d="M230.588 307.039C231.651 307.497 233.016 308.306 233.379 309.644C233.953 311.755 231.694 313.932 228.08 317.33C225.369 319.88 221.707 323.324 220.432 322.454C219.651 321.923 220.113 320.01 220.542 318.229C221.06 316.086 222.202 312.769 225.032 309.134L230.588 307.039Z" fill="url(#paint34_linear_1680_5960)"/>
<path d="M295.992 340.388L301.076 346.015C301.598 346.593 301.337 347.522 300.585 347.731C299.472 348.041 297.92 348.293 296.495 347.891C296.182 347.802 295.905 347.613 295.672 347.386L290.598 342.44L295.991 340.387L295.992 340.388Z" fill="url(#paint35_linear_1680_5960)"/>
<path d="M227.77 303.641L230.511 307.584C230.899 308.142 230.713 308.909 230.116 309.237C229.722 309.454 229.252 309.684 228.761 309.861C227.965 310.149 227.072 309.934 226.509 309.302L223.536 305.96L227.77 303.64V303.641Z" fill="url(#paint36_linear_1680_5960)"/>
<path d="M277.001 221.051C274.395 226.487 271.254 234.329 269.348 244.141C268.547 248.268 264.797 269.048 272.856 294.089C280.357 317.394 294.173 332.229 301.524 339.107C300.483 339.986 299.041 341.019 297.176 341.885C294.19 343.272 291.459 343.611 289.712 343.682C267.262 327.685 256.376 309.561 251.434 299.697C234.762 266.421 238.944 233.752 246.232 219.936C248.626 215.399 251.328 212.942 254.391 211.848C264.217 208.34 275.612 219.64 277 221.05L277.001 221.051Z" fill="url(#paint37_linear_1680_5960)"/>
<path style="mix-blend-mode:multiply" opacity="0.3" d="M246.232 219.936C248.625 215.399 251.328 212.942 254.39 211.848C264.217 208.34 275.611 219.64 276.999 221.05C274.43 226.411 271.346 234.117 269.433 243.737C262.568 245.348 252.976 249.169 248.302 258.203C240.74 272.818 251.612 290.332 253.867 293.967C258.832 301.966 261.839 301.216 269.172 312.716C274.71 321.403 275.134 325.185 279.954 329.383C285.623 334.319 292.701 335.766 298.417 336.08C299.538 337.217 300.583 338.228 301.521 339.105C300.481 339.984 299.038 341.016 297.173 341.883C294.187 343.27 291.456 343.608 289.709 343.679C267.259 327.682 256.373 309.559 251.431 299.695C234.759 266.419 238.941 233.75 246.229 219.933L246.232 219.936Z" fill="url(#paint38_linear_1680_5960)"/>
<path d="M264.305 219.835C263.097 222.284 260.998 225.939 257.522 229.557C248.711 238.73 240.472 237.862 231.137 245.416C229.986 246.348 221.718 253.191 218.665 263.177C212.787 282.397 229.868 301.352 231.76 303.393C230.661 304.408 229.002 305.722 226.738 306.814C224.656 307.819 222.755 308.303 221.346 308.55C196.856 286.213 184.89 259.145 193.039 241.556C197.485 231.962 208.009 224.987 215.781 219.835C228.489 211.411 240.619 207.585 248.515 205.717C253.778 210.423 259.042 215.128 264.305 219.835Z" fill="url(#paint39_linear_1680_5960)"/>
<path d="M249.694 168.851C249.325 179.66 251.837 185.266 248.32 194.086C245.793 200.426 241.607 204.781 238.431 207.49C240.238 210.953 244.45 217.866 252.671 223.266C262.603 229.79 272.483 230.227 276.362 230.194C284.579 225.973 297.043 218.019 307.046 203.855C313.827 194.253 321.274 183.711 319.303 170.271C316.801 153.198 300.952 144.077 296.458 141.491C293.501 139.789 273.076 128.035 260.591 136.674C250.553 143.621 249.969 160.766 249.692 168.851H249.694Z" fill="url(#paint40_linear_1680_5960)"/>
<path d="M181.431 181.12C181.104 179.374 179.852 178.106 179.138 177.386C178.308 176.55 178.138 176.682 177.597 175.998C176.234 174.276 176.564 172.498 176.04 172.438C175.584 172.386 174.784 173.666 174.838 174.991C174.899 176.471 175.982 176.913 175.779 177.733C175.491 178.887 172.923 179.725 170.648 179.295C168.01 178.796 166.723 176.674 165.691 177.212C164.942 177.602 164.99 178.999 164.996 179.122C165.111 181.742 168.619 184.492 172.039 184.851C174.009 185.058 174.747 184.346 177.083 184.938C178.634 185.33 179.175 185.863 179.953 185.545C181.227 185.023 181.744 182.787 181.431 181.118V181.12Z" fill="url(#paint41_linear_1680_5960)"/>
<path d="M181.054 180.194C202.142 181.651 214.738 176.177 222.331 170.935C239.556 159.044 242.936 140.139 262.913 135.054C266.556 134.128 272.901 132.513 276.364 135.748C283.557 142.474 275.074 167.124 260.131 182.277C256.832 185.623 244.942 197.327 225.32 199.969C200.171 203.356 182.129 189.189 179.018 186.66C178.032 185.551 177.731 183.999 178.243 182.637C178.964 180.723 180.898 180.231 181.055 180.194H181.054Z" fill="url(#paint42_linear_1680_5960)"/>
<path style="mix-blend-mode:multiply" opacity="0.3" d="M285.406 213.296C291.344 207.681 288.534 204.201 295.841 192.925C303.286 181.438 308.643 181.225 312.074 173.481C313.848 169.475 314.942 163.722 312.987 155.457C315.995 159.503 318.445 164.407 319.303 170.272C321.274 183.711 313.827 194.253 307.046 203.856C297.042 218.02 284.578 225.974 276.362 230.195C272.484 230.228 262.605 229.791 252.671 223.267C248.986 220.847 246.111 218.124 243.894 215.542C246.927 217.21 250.475 218.666 254.563 219.546C256.544 219.973 274.523 223.586 285.405 213.296H285.406Z" fill="url(#paint43_linear_1680_5960)"/>
<path d="M290.853 129.799L292.57 135.593C293.12 137.447 294.235 139.084 295.76 140.275L300.318 143.838C300.318 143.838 286.415 141.508 279.765 135.04L283.825 133.761C284.252 133.627 284.542 133.232 284.542 132.785V128.525L290.852 129.799H290.853Z" fill="url(#paint44_linear_1680_5960)"/>
<path d="M285.855 132.727C285.194 132.58 280.394 133.364 279.03 131.061C277.178 127.935 279.02 122.94 279.207 122.168C279.986 118.938 280.276 118.448 280.876 117.765L281.725 116.868C281.725 116.868 281.778 116.828 281.833 116.79C282.424 116.384 284.63 115.725 285.106 115.702C286.628 115.625 289.722 121.07 291.494 129.46C291.638 129.759 291.78 130.061 291.921 130.367C292.288 131.162 285.898 133.033 285.854 132.727H285.855Z" fill="url(#paint45_linear_1680_5960)"/>
<path d="M278.116 115.31C278.809 117.871 280.75 120.287 281.484 120.563C281.579 120.599 282.121 120.833 282.684 121.33C282.761 121.398 282.834 121.482 282.911 121.594C283.905 123.06 281.84 125.645 282.53 126.237C283.03 126.666 284.592 125.499 284.921 125.896C285.231 126.271 284.013 127.54 284.373 127.991C284.643 128.332 285.443 127.742 286.166 128.182C286.526 128.402 286.505 128.656 287.043 129.477C287.347 129.94 287.731 130.433 287.996 130.695C289.286 131.964 291.946 131.845 292.269 131.114C292.359 130.91 292.205 130.801 292.192 130.2C292.192 130.2 292.18 129.645 292.383 128.943C292.673 127.943 293.762 126.992 294.786 125.745C296.68 123.435 296.934 121.829 296.997 121.292C297.018 121.101 297.026 120.959 297.032 120.857C297.137 118.805 296.399 116.03 295.092 114.549C292.902 112.07 290.05 114.283 286.661 112.15C282.752 109.69 283.367 104.742 281.588 104.687C279.627 104.626 276.835 110.576 278.117 115.312L278.116 115.31Z" fill="#26264F"/>
<path d="M283.291 125.387C283.691 124.357 285.012 124.873 285.317 125.989C285.621 127.104 284.848 128.553 283.737 128.613C282.626 128.672 282.755 126.775 283.291 125.388V125.387Z" fill="url(#paint46_linear_1680_5960)"/>
<path d="M31.376 299.751L103.084 296.639L185.703 299.529L104.196 317.312L31.376 299.751Z" fill="url(#paint47_linear_1680_5960)"/>
<path d="M89.1513 368.728L31.067 353.122C25.2168 351.55 20.6729 345.765 20.6729 340.154V340.093C20.6729 334.482 25.218 330.717 31.067 331.747L93.3657 341.924L89.1513 368.726V368.728Z" fill="url(#paint48_linear_1680_5960)"/>
<path d="M185.803 357.009L91.9509 367.471C86.0731 368.126 81.2393 364.035 81.2393 358.322V354.446C81.2393 348.734 86.0719 343.719 91.9509 343.252L185.803 335.795C181.649 343.512 180.691 350.733 185.803 357.007V357.009Z" fill="url(#paint49_linear_1680_5960)"/>
<path d="M186.619 358.048L92.7363 368.675C85.0687 369.543 78.7158 364.182 78.7158 356.708V356.627C78.7158 349.154 85.0699 342.58 92.7363 341.982L186.619 334.672C187.184 334.628 187.641 335.097 187.641 335.72C187.641 336.344 187.184 336.886 186.619 336.932L92.7363 344.562C86.5686 345.064 81.4749 350.361 81.4749 356.363V356.444C81.4749 362.446 86.5674 366.771 92.7363 366.094L186.619 355.789C187.184 355.726 187.641 356.181 187.641 356.804C187.641 357.428 187.184 357.985 186.619 358.048Z" fill="url(#paint50_linear_1680_5960)"/>
<path d="M91.5917 341.988L31.067 331.748C25.2168 330.717 20.6729 323.064 20.6729 314.639V314.546C20.6729 306.122 25.218 299.437 31.067 299.654L95.2721 302.035L91.5917 341.988Z" fill="url(#paint51_linear_1680_5960)"/>
<path d="M185.803 333.037L97.2105 339.708C88.4738 340.366 81.2393 333.957 81.2393 325.38V319.561C81.2393 310.984 88.4726 303.835 97.2105 303.597L185.803 301.186C181.636 312.75 180.705 323.579 185.803 333.037Z" fill="url(#paint52_linear_1680_5960)"/>
<path d="M186.619 334.672L92.7363 341.981C85.0687 342.578 78.7158 333.945 78.7158 322.724V322.6C78.7158 311.379 85.0699 302.092 92.7363 301.903L186.619 299.573C187.184 299.559 187.641 300.307 187.641 301.242C187.641 302.178 187.184 302.95 186.619 302.966L92.7363 305.777C86.5686 305.962 81.4749 313.447 81.4749 322.458V322.581C81.4749 331.593 86.5674 338.555 92.7363 338.106L186.619 331.278C187.184 331.237 187.641 331.962 187.641 332.898C187.641 333.833 187.184 334.628 186.619 334.671V334.672Z" fill="url(#paint53_linear_1680_5960)"/>
<g style="mix-blend-mode:soft-light" opacity="0.5">
<path d="M72.8236 333.545L59.8857 331.288C56.8644 323.056 57.0917 315.496 59.8857 306.458L72.8236 307.376C70.1716 316.887 70.5733 325.5 72.8236 333.545Z" fill="white"/>
</g>
<defs>
<linearGradient id="paint0_linear_1680_5960" x1="21.8821" y1="148.976" x2="175.6" y2="397.876" gradientUnits="userSpaceOnUse">
<stop stop-color="#AA80F9"/>
<stop offset="1" stop-color="#6165D7"/>
</linearGradient>
<linearGradient id="paint1_linear_1680_5960" x1="88.8396" y1="90.1247" x2="100.288" y2="337.108" gradientUnits="userSpaceOnUse">
<stop stop-color="#E38DDD"/>
<stop offset="1" stop-color="#9571F6"/>
</linearGradient>
<linearGradient id="paint2_linear_1680_5960" x1="346.08" y1="62.7676" x2="193.887" y2="312.597" gradientUnits="userSpaceOnUse">
<stop stop-color="#AA80F9"/>
<stop offset="1" stop-color="#6165D7"/>
</linearGradient>
<linearGradient id="paint3_linear_1680_5960" x1="247.115" y1="47.5241" x2="237.173" y2="294.579" gradientUnits="userSpaceOnUse">
<stop stop-color="#E38DDD"/>
<stop offset="1" stop-color="#9571F6"/>
</linearGradient>
<linearGradient id="paint4_linear_1680_5960" x1="179.901" y1="261.682" x2="159.076" y2="714.3" gradientUnits="userSpaceOnUse">
<stop stop-color="#26264F"/>
<stop offset="1" stop-color="#444B8C"/>
</linearGradient>
<linearGradient id="paint5_linear_1680_5960" x1="200.96" y1="10.7359" x2="180.135" y2="463.356" gradientUnits="userSpaceOnUse">
<stop stop-color="#444B8C"/>
<stop offset="1" stop-color="#26264F"/>
</linearGradient>
<linearGradient id="paint6_linear_1680_5960" x1="201.055" y1="37.8567" x2="183.386" y2="421.919" gradientUnits="userSpaceOnUse">
<stop offset="0.49" stop-color="#EBEFF2"/>
<stop offset="1" stop-color="white"/>
</linearGradient>
<linearGradient id="paint7_linear_1680_5960" x1="199.853" y1="295.192" x2="186.746" y2="629.449" gradientUnits="userSpaceOnUse">
<stop stop-color="#444B8C"/>
<stop offset="1" stop-color="#26264F"/>
</linearGradient>
<linearGradient id="paint8_linear_1680_5960" x1="200.592" y1="20.1284" x2="185.844" y2="396.239" gradientUnits="userSpaceOnUse">
<stop offset="0.49" stop-color="#EBEFF2"/>
<stop offset="1" stop-color="white"/>
</linearGradient>
<linearGradient id="paint9_linear_1680_5960" x1="154.012" y1="133.808" x2="179.136" y2="133.808" gradientUnits="userSpaceOnUse">
<stop stop-color="#FF9085"/>
<stop offset="1" stop-color="#FB6FBB"/>
</linearGradient>
<linearGradient id="paint10_linear_1680_5960" x1="141.22" y1="134.024" x2="154.161" y2="134.024" gradientUnits="userSpaceOnUse">
<stop stop-color="#FF9085"/>
<stop offset="1" stop-color="#FB6FBB"/>
</linearGradient>
<linearGradient id="paint11_linear_1680_5960" x1="140.456" y1="11.2929" x2="130.308" y2="288.315" gradientUnits="userSpaceOnUse">
<stop stop-color="#AA80F9"/>
<stop offset="1" stop-color="#6165D7"/>
</linearGradient>
<linearGradient id="paint12_linear_1680_5960" x1="112.369" y1="46.3077" x2="71.3177" y2="506.389" gradientUnits="userSpaceOnUse">
<stop stop-color="#FFC444"/>
<stop offset="1" stop-color="#F36F56"/>
</linearGradient>
<linearGradient id="paint13_linear_1680_5960" x1="78.5176" y1="134.644" x2="91.4579" y2="134.644" gradientUnits="userSpaceOnUse">
<stop stop-color="#FFC444"/>
<stop offset="1" stop-color="#F36F56"/>
</linearGradient>
<linearGradient id="paint14_linear_1680_5960" x1="286.21" y1="84.5818" x2="269.209" y2="241.058" gradientUnits="userSpaceOnUse">
<stop stop-color="#E38DDD"/>
<stop offset="1" stop-color="#9571F6"/>
</linearGradient>
<linearGradient id="paint15_linear_1680_5960" x1="256.849" y1="132.816" x2="269.79" y2="132.816" gradientUnits="userSpaceOnUse">
<stop stop-color="#E38DDD"/>
<stop offset="1" stop-color="#9571F6"/>
</linearGradient>
<linearGradient id="paint16_linear_1680_5960" x1="257.415" y1="15.5274" x2="247.73" y2="279.888" gradientUnits="userSpaceOnUse">
<stop stop-color="#40447E"/>
<stop offset="1" stop-color="#3C3B6B"/>
</linearGradient>
<linearGradient id="paint17_linear_1680_5960" x1="231.956" y1="48.9875" x2="192.809" y2="487.732" gradientUnits="userSpaceOnUse">
<stop stop-color="#AA80F9"/>
<stop offset="1" stop-color="#6165D7"/>
</linearGradient>
<linearGradient id="paint18_linear_1680_5960" x1="199.761" y1="133.106" x2="212.702" y2="133.106" gradientUnits="userSpaceOnUse">
<stop stop-color="#AA80F9"/>
<stop offset="1" stop-color="#6165D7"/>
</linearGradient>
<linearGradient id="paint19_linear_1680_5960" x1="288.806" y1="170.942" x2="270.366" y2="364.11" gradientUnits="userSpaceOnUse">
<stop stop-color="#FFC444"/>
<stop offset="1" stop-color="#F36F56"/>
</linearGradient>
<linearGradient id="paint20_linear_1680_5960" x1="251.682" y1="261.689" x2="269.393" y2="261.689" gradientUnits="userSpaceOnUse">
<stop stop-color="#FFC444"/>
<stop offset="1" stop-color="#F36F56"/>
</linearGradient>
<linearGradient id="paint21_linear_1680_5960" x1="257.079" y1="140.168" x2="247.28" y2="407.656" gradientUnits="userSpaceOnUse">
<stop stop-color="#AA80F9"/>
<stop offset="1" stop-color="#6165D7"/>
</linearGradient>
<linearGradient id="paint22_linear_1680_5960" x1="231.672" y1="175.988" x2="192.278" y2="617.504" gradientUnits="userSpaceOnUse">
<stop stop-color="#FF9085"/>
<stop offset="1" stop-color="#FB6FBB"/>
</linearGradient>
<linearGradient id="paint23_linear_1680_5960" x1="194.661" y1="263.978" x2="212.373" y2="263.978" gradientUnits="userSpaceOnUse">
<stop stop-color="#FF9085"/>
<stop offset="1" stop-color="#FB6FBB"/>
</linearGradient>
<linearGradient id="paint24_linear_1680_5960" x1="198.385" y1="206.34" x2="191.292" y2="346.793" gradientUnits="userSpaceOnUse">
<stop stop-color="#AA80F9"/>
<stop offset="1" stop-color="#6165D7"/>
</linearGradient>
<linearGradient id="paint25_linear_1680_5960" x1="174.953" y1="173.97" x2="155.63" y2="376.372" gradientUnits="userSpaceOnUse">
<stop stop-color="#FFC444"/>
<stop offset="1" stop-color="#F36F56"/>
</linearGradient>
<linearGradient id="paint26_linear_1680_5960" x1="135.903" y1="266.346" x2="154.109" y2="266.346" gradientUnits="userSpaceOnUse">
<stop stop-color="#FFC444"/>
<stop offset="1" stop-color="#F36F56"/>
</linearGradient>
<linearGradient id="paint27_linear_1680_5960" x1="140.371" y1="141.733" x2="130.098" y2="422.181" gradientUnits="userSpaceOnUse">
<stop stop-color="#40447E"/>
<stop offset="1" stop-color="#3C3B6B"/>
</linearGradient>
<linearGradient id="paint28_linear_1680_5960" x1="112.349" y1="179.334" x2="71.0265" y2="642.456" gradientUnits="userSpaceOnUse">
<stop stop-color="#E38DDD"/>
<stop offset="1" stop-color="#9571F6"/>
</linearGradient>
<linearGradient id="paint29_linear_1680_5960" x1="81.5381" y1="268.931" x2="91.5233" y2="268.931" gradientUnits="userSpaceOnUse">
<stop stop-color="#E38DDD"/>
<stop offset="1" stop-color="#9571F6"/>
</linearGradient>
<linearGradient id="paint30_linear_1680_5960" x1="284.279" y1="160.514" x2="209.291" y2="129.187" gradientUnits="userSpaceOnUse">
<stop stop-color="#FFC444"/>
<stop offset="1" stop-color="#F36F56"/>
</linearGradient>
<linearGradient id="paint31_linear_1680_5960" x1="236.41" y1="142.434" x2="80.1658" y2="154.117" gradientUnits="userSpaceOnUse">
<stop stop-color="#FFC444"/>
<stop offset="1" stop-color="#F36F56"/>
</linearGradient>
<linearGradient id="paint32_linear_1680_5960" x1="171.313" y1="224.276" x2="258.528" y2="166.192" gradientUnits="userSpaceOnUse">
<stop stop-color="#FFC444"/>
<stop offset="1" stop-color="#F36F56"/>
</linearGradient>
<linearGradient id="paint33_linear_1680_5960" x1="303.947" y1="349.749" x2="283.591" y2="349.749" gradientUnits="userSpaceOnUse">
<stop stop-color="#40447E"/>
<stop offset="1" stop-color="#3C3B6B"/>
</linearGradient>
<linearGradient id="paint34_linear_1680_5960" x1="233.468" y1="314.815" x2="220.01" y2="314.815" gradientUnits="userSpaceOnUse">
<stop stop-color="#40447E"/>
<stop offset="1" stop-color="#3C3B6B"/>
</linearGradient>
<linearGradient id="paint35_linear_1680_5960" x1="294.01" y1="348.763" x2="286.645" y2="364.045" gradientUnits="userSpaceOnUse">
<stop stop-color="#311944"/>
<stop offset="1" stop-color="#A03976"/>
</linearGradient>
<linearGradient id="paint36_linear_1680_5960" x1="222.917" y1="288.314" x2="234.172" y2="338.543" gradientUnits="userSpaceOnUse">
<stop stop-color="#311944"/>
<stop offset="1" stop-color="#A03976"/>
</linearGradient>
<linearGradient id="paint37_linear_1680_5960" x1="225.823" y1="326.735" x2="277.907" y2="274.559" gradientUnits="userSpaceOnUse">
<stop stop-color="#AB316D"/>
<stop offset="1" stop-color="#792D3D"/>
</linearGradient>
<linearGradient id="paint38_linear_1680_5960" x1="225.822" y1="326.735" x2="277.906" y2="274.559" gradientUnits="userSpaceOnUse">
<stop stop-color="#AB316D"/>
<stop offset="1" stop-color="#792D3D"/>
</linearGradient>
<linearGradient id="paint39_linear_1680_5960" x1="191.271" y1="292.244" x2="243.354" y2="240.069" gradientUnits="userSpaceOnUse">
<stop stop-color="#AB316D"/>
<stop offset="1" stop-color="#792D3D"/>
</linearGradient>
<linearGradient id="paint40_linear_1680_5960" x1="259.725" y1="129.233" x2="288.503" y2="218.153" gradientUnits="userSpaceOnUse">
<stop stop-color="#AA80F9"/>
<stop offset="1" stop-color="#6165D7"/>
</linearGradient>
<linearGradient id="paint41_linear_1680_5960" x1="165.512" y1="188.739" x2="174.441" y2="179.794" gradientUnits="userSpaceOnUse">
<stop stop-color="#311944"/>
<stop offset="1" stop-color="#A03976"/>
</linearGradient>
<linearGradient id="paint42_linear_1680_5960" x1="221.589" y1="141.576" x2="250.367" y2="230.496" gradientUnits="userSpaceOnUse">
<stop stop-color="#AA80F9"/>
<stop offset="1" stop-color="#6165D7"/>
</linearGradient>
<linearGradient id="paint43_linear_1680_5960" x1="261.012" y1="128.816" x2="289.79" y2="217.736" gradientUnits="userSpaceOnUse">
<stop stop-color="#AA80F9"/>
<stop offset="1" stop-color="#6165D7"/>
</linearGradient>
<linearGradient id="paint44_linear_1680_5960" x1="297.457" y1="151.649" x2="274.327" y2="113.418" gradientUnits="userSpaceOnUse">
<stop stop-color="#311944"/>
<stop offset="1" stop-color="#A03976"/>
</linearGradient>
<linearGradient id="paint45_linear_1680_5960" x1="299.099" y1="150.655" x2="275.97" y2="112.425" gradientUnits="userSpaceOnUse">
<stop stop-color="#311944"/>
<stop offset="1" stop-color="#A03976"/>
</linearGradient>
<linearGradient id="paint46_linear_1680_5960" x1="298.679" y1="150.91" x2="275.55" y2="112.678" gradientUnits="userSpaceOnUse">
<stop stop-color="#311944"/>
<stop offset="1" stop-color="#A03976"/>
</linearGradient>
<linearGradient id="paint47_linear_1680_5960" x1="31.376" y1="306.975" x2="185.703" y2="306.975" gradientUnits="userSpaceOnUse">
<stop stop-color="#FFC444"/>
<stop offset="1" stop-color="#F36F56"/>
</linearGradient>
<linearGradient id="paint48_linear_1680_5960" x1="48.4648" y1="368.052" x2="61.0069" y2="339.473" gradientUnits="userSpaceOnUse">
<stop stop-color="#AA80F9"/>
<stop offset="1" stop-color="#6165D7"/>
</linearGradient>
<linearGradient id="paint49_linear_1680_5960" x1="81.2393" y1="351.668" x2="185.803" y2="351.668" gradientUnits="userSpaceOnUse">
<stop stop-color="#F4F7FA"/>
<stop offset="1" stop-color="#D8DEE8"/>
</linearGradient>
<linearGradient id="paint50_linear_1680_5960" x1="78.7158" y1="351.717" x2="187.641" y2="351.717" gradientUnits="userSpaceOnUse">
<stop stop-color="#AA80F9"/>
<stop offset="1" stop-color="#6165D7"/>
</linearGradient>
<linearGradient id="paint51_linear_1680_5960" x1="66.7273" y1="291.035" x2="44.7433" y2="365.214" gradientUnits="userSpaceOnUse">
<stop stop-color="#FFC444"/>
<stop offset="1" stop-color="#F36F56"/>
</linearGradient>
<linearGradient id="paint52_linear_1680_5960" x1="-0.000356382" y1="320.469" x2="0.119918" y2="320.469" gradientUnits="userSpaceOnUse">
<stop stop-color="#F4F7FA"/>
<stop offset="1" stop-color="#D8DEE8"/>
</linearGradient>
<linearGradient id="paint53_linear_1680_5960" x1="78.7158" y1="320.791" x2="187.641" y2="320.791" gradientUnits="userSpaceOnUse">
<stop stop-color="#FFC444"/>
<stop offset="1" stop-color="#F36F56"/>
</linearGradient>
</defs>
</svg>
