<svg width="350" height="350" viewBox="0 0 350 350" fill="none" xmlns="http://www.w3.org/2000/svg">
<path d="M83.4789 21.0749C78.5467 26.9811 71.1558 40.6348 53.2239 55.751C31.7726 73.8335 24.0472 69.721 14.0554 80.8122C-10.5247 108.097 -1.26428 174.213 29.3963 213.788C39.8587 227.293 48.6012 232.547 52.4739 247.821C60.7883 280.617 31.5679 300.125 37.1279 316.345C49.6483 352.868 242.202 383.514 319.463 273.753C355.548 222.491 360.947 148.467 328.706 92.2447C269.8 -10.4776 114.705 -16.3113 83.4789 21.0749Z" fill="#F4F7FA"/>
<path d="M226.576 194.402C215.946 191.391 220.791 132.498 229.118 91.9311C235.956 58.6149 246.964 28.7887 253.2 29.8562C257.974 30.6725 258.196 49.2887 262.346 49.4649C267.906 49.6999 268.912 16.3387 279.429 14.1163C285.909 12.7463 295.234 23.36 299.018 34.6312C305.845 54.9662 293.413 73.8049 268.283 120.847C236.078 181.131 232.047 195.953 226.577 194.403L226.576 194.402Z" fill="url(#paint0_linear_1680_6148)"/>
<path style="mix-blend-mode:soft-light" opacity="0.3" d="M240.25 160.263C237.72 144.199 232.802 135.665 236.516 122.5C239.76 111 245.381 110.884 249.3 97.503C253.738 82.348 247.607 78.8068 251.657 66.7518C257.28 50.0131 271.248 50.4381 275.729 35.6894C277.146 31.0281 277.718 24.5056 274.977 15.4932C279.336 18.7019 283.673 23.6619 286.589 29.0519C296.791 47.9156 287.764 68.6093 271.047 119.267C249.625 184.183 248.188 199.478 242.533 198.889C241.673 198.8 240.849 198.357 240.059 197.598C242.48 182.13 241.723 169.615 240.25 160.263Z" fill="url(#paint1_linear_1680_6148)"/>
<path d="M239.718 231.874C236.934 183.618 242.263 145.313 247.697 119.339C259.923 60.9008 275.55 51.1396 282.983 47.9721C292.889 43.7496 307.946 42.8421 314.562 51.0071C326.94 66.2821 304.295 106.561 311.382 111.074C315.05 113.411 321.666 102.977 327.756 105.366C336.085 108.633 335.77 132.878 335.412 138.871C332.641 185.186 262.631 220.993 239.718 231.874Z" fill="url(#paint2_linear_1680_6148)"/>
<path d="M257.954 184.409C268.431 166.174 273.643 164.748 277.241 151.044C283.876 125.773 270.528 113.945 279.223 95.4428C285.422 82.2503 294.065 84.3091 304.174 68.5141C308.288 62.0854 310.922 55.3916 312.605 49.0454C313.317 49.6317 313.975 50.2817 314.562 51.0079C326.94 66.2829 304.295 106.562 311.382 111.075C315.05 113.412 321.666 102.978 327.757 105.367C336.085 108.634 335.77 132.879 335.412 138.871C332.641 185.186 262.631 220.994 239.719 231.875C239.667 230.995 239.625 230.125 239.58 229.251C245.084 209.143 252.178 194.463 257.954 184.409Z" fill="url(#paint3_linear_1680_6148)"/>
<path d="M199.613 244.282C192.348 235.526 188.637 226.893 186.738 221.459C191.225 216.548 195.757 211.856 200.124 207.608C221.651 186.671 244.898 170.967 249.461 175.655C252.954 179.242 244.214 193.458 247.507 196.173C251.918 199.812 268.722 175.21 278.343 180.075C284.324 183.098 286.288 197.251 284.451 207.778C277.809 245.843 223.302 265.173 206.36 251.359C204.478 249.824 201.627 246.709 199.613 244.281V244.282Z" fill="url(#paint4_linear_1680_6148)"/>
<g style="mix-blend-mode:soft-light" opacity="0.3">
<path d="M214.004 255.764C206.669 255.868 198.393 240.821 193.057 229.414C201.229 225.816 205.495 229.063 215.783 223.793C228.239 217.412 225.994 210.597 236.275 205.906C250.55 199.393 260.339 210.039 272.577 203.949C276.444 202.026 280.843 198.284 284.379 190.493C285.555 195.781 285.643 202.169 284.446 207.777C278.253 236.794 234.187 238.503 218.126 253.844C217.587 254.359 216.195 255.733 214.003 255.764H214.004Z" fill="white"/>
</g>
<path d="M215.292 27.4628C215.307 23.0979 212.217 19.4754 208.377 19.3716L30.3374 14.0991L23.8651 14.4154C19.2785 14.2916 15.5469 18.0804 15.5469 22.8754V305.273C15.5469 310.02 19.2585 313.468 23.8214 312.977L207.439 293.216C211.263 292.805 214.365 288.967 214.38 284.642L215.293 27.4653L215.292 27.4628Z" fill="url(#paint5_linear_1680_6148)"/>
<path d="M223.241 27.0483C223.256 22.6833 220.166 19.0608 216.326 18.957L31.8143 13.9995C27.2277 13.8758 23.4961 17.6645 23.4961 22.4595V304.858C23.4961 309.604 27.2078 313.051 31.7706 312.561L215.389 292.8C219.213 292.389 222.314 288.551 222.329 284.226L223.242 27.0495L223.241 27.0483Z" fill="url(#paint6_linear_1680_6148)"/>
<path d="M214.835 44.8424L214.078 267.632C214.07 269.931 212.42 271.949 210.385 272.148L38.1701 288.894C35.7726 289.128 33.8281 287.293 33.8281 284.792L33.8731 42.2825C33.8731 40.905 34.4571 39.6775 35.3819 38.8575C36.1482 38.1725 37.1429 37.77 38.235 37.7887L211.157 40.59C213.2 40.6225 214.844 42.525 214.835 44.8412V44.8424Z" fill="url(#paint7_linear_1680_6148)"/>
<g style="mix-blend-mode:soft-light" opacity="0.9">
<path d="M207.253 272.451L38.2999 288.881C35.9024 289.114 33.8281 287.292 33.8281 284.791L33.8731 42.2812C33.8731 40.9037 34.5233 39.6774 35.4481 38.8574C36.0035 40.2962 36.6337 41.7149 37.279 43.1037C56.2904 84.0011 94.2595 56.6974 119.273 96.9935C138.833 128.506 123.641 158.688 145.712 193.64C163.148 221.238 178.766 211.505 194.633 238.066C200.74 248.288 204.706 260.251 207.253 272.449V272.451Z" fill="white"/>
</g>
<mask id="mask0_1680_6148" style="mask-type:luminance" maskUnits="userSpaceOnUse" x="33" y="37" width="182" height="252">
<path d="M214.835 44.8424L214.078 267.632C214.07 269.931 212.42 271.949 210.385 272.148L38.1701 288.894C35.7726 289.128 33.8281 287.293 33.8281 284.792L33.8731 42.2825C33.8731 40.905 34.4571 39.6775 35.3819 38.8575C36.1482 38.1725 37.1429 37.77 38.235 37.7887L211.157 40.59C213.2 40.6225 214.844 42.525 214.835 44.8412V44.8424Z" fill="white"/>
</mask>
<g mask="url(#mask0_1680_6148)">
<g style="mix-blend-mode:soft-light" opacity="0.5">
<path d="M139.132 184.598L111.113 186.095L111.118 182.511L139.139 181.062L139.132 184.598Z" fill="white"/>
<path d="M138.954 270.916L110.977 273.554L110.982 269.981L138.961 267.39L138.954 270.916Z" fill="white"/>
</g>
<path d="M111.153 155.021L90.293 155.832L90.4265 45.7373L111.325 45.9911L111.153 155.021Z" fill="url(#paint8_linear_1680_6148)"/>
<g style="mix-blend-mode:soft-light">
<path d="M104.526 134.48L96.6992 134.708L96.7891 66.7554L104.626 66.7741L104.526 134.48Z" fill="white"/>
</g>
<path d="M90.4228 45.7373L79.5898 52.2523V156.248L90.298 155.832L90.4228 45.7373Z" fill="url(#paint9_linear_1680_6148)"/>
<path d="M90.301 155.832L59.7852 157.019L59.855 52.334L90.4258 52.6065L90.301 155.832Z" fill="url(#paint10_linear_1680_6148)"/>
<g style="mix-blend-mode:soft-light" opacity="0.9">
<path d="M90.418 64.3198L59.8535 64.2136L59.856 60.5273L90.4218 60.6861L90.418 64.3198Z" fill="white"/>
<path d="M90.4058 70.3749L59.8438 70.3549L59.8462 66.6699L90.4095 66.7412L90.4058 70.3749Z" fill="white"/>
</g>
<g style="mix-blend-mode:soft-light" opacity="0.9">
<path d="M90.317 142.145L59.7949 143.138L59.7974 139.463L90.322 138.521L90.317 142.145Z" fill="white"/>
<path d="M90.3145 148.184L59.7949 149.263L59.7974 145.588L90.3195 144.561L90.3145 148.184Z" fill="white"/>
</g>
<path d="M59.7785 157.017L37.9004 157.869L37.9316 45.1025L59.8534 45.3675L59.7785 157.017Z" fill="url(#paint11_linear_1680_6148)"/>
<g style="mix-blend-mode:soft-light" opacity="0.5">
<path d="M57.1263 59.6892L41.084 59.6005L41.0865 51.7505L57.1313 51.8967L57.1263 59.6892Z" fill="white"/>
</g>
<path d="M37.9326 45.1025L27.0996 51.6163V158.075L37.9014 157.869L37.9326 45.1025Z" fill="url(#paint12_linear_1680_6148)"/>
<path d="M205.997 151.334L186.953 152.075L187.261 46.9092L206.338 47.1392L205.997 151.334Z" fill="url(#paint13_linear_1680_6148)"/>
<g style="mix-blend-mode:soft-light">
<path d="M199.976 131.696L192.832 131.905L193.028 66.9849L200.18 67.0024L199.976 131.696Z" fill="white"/>
</g>
<path d="M187.218 46.9092L176.387 53.1154V152.75L187.187 152.075L187.218 46.9092Z" fill="url(#paint14_linear_1680_6148)"/>
<path d="M186.96 152.075L159.131 153.156L159.374 53.2202L187.249 53.469L186.96 152.075Z" fill="url(#paint15_linear_1680_6148)"/>
<g style="mix-blend-mode:soft-light" opacity="0.9">
<path d="M187.224 64.655L159.355 64.5575L159.364 61.04L187.234 61.1838L187.224 64.655Z" fill="white"/>
<path d="M187.202 70.4405L159.336 70.4218L159.345 66.9043L187.212 66.9693L187.202 70.4405Z" fill="white"/>
</g>
<g style="mix-blend-mode:soft-light" opacity="0.9">
<path d="M186.995 138.997L159.16 139.902L159.169 136.393L187.005 135.535L186.995 138.997Z" fill="white"/>
<path d="M186.982 144.765L159.15 145.749L159.159 142.241L186.992 141.304L186.982 144.765Z" fill="white"/>
</g>
<path d="M159.119 153.157L139.189 153.932L139.413 46.3306L159.379 46.5718L159.119 153.157Z" fill="url(#paint16_linear_1680_6148)"/>
<g style="mix-blend-mode:soft-light" opacity="0.5">
<path d="M156.868 60.2446L142.256 60.1633L142.271 52.6733L156.885 52.8058L156.868 60.2446Z" fill="white"/>
</g>
<path d="M139.425 46.2891L128.594 52.4953V153.926L139.394 153.729L139.425 46.2891Z" fill="url(#paint17_linear_1680_6148)"/>
<path d="M214.435 160.156L33.8477 167.984L33.8489 157.243L214.468 150.288L214.435 160.156Z" fill="#D8DEE8"/>
<path d="M214.435 282.007L33.8477 289.836L33.8489 279.095L214.468 272.139L214.435 282.007Z" fill="#D8DEE8"/>
<path d="M205.608 270.701L186.602 272.549L186.909 167.834L205.947 166.948L205.608 270.701Z" fill="url(#paint18_linear_1680_6148)"/>
<g style="mix-blend-mode:soft-light" opacity="0.9">
<path d="M205.921 175.326L186.885 176.288L186.895 172.831L205.932 171.899L205.921 175.326Z" fill="white"/>
<path d="M205.899 181.035L186.865 182.051L186.875 178.594L205.91 177.61L205.899 181.035Z" fill="white"/>
</g>
<g style="mix-blend-mode:soft-light" opacity="0.9">
<path d="M205.641 258.939L186.631 260.677L186.641 257.23L205.652 255.522L205.641 258.939Z" fill="white"/>
<path d="M205.62 264.631L186.611 266.423L186.621 262.976L205.631 261.216L205.62 264.631Z" fill="white"/>
</g>
<path d="M186.887 167.864L172.061 168.844L172.697 280.187L186.765 280.035L186.887 167.864Z" fill="url(#paint19_linear_1680_6148)"/>
<path d="M186.601 272.55L158.828 275.25L159.07 175.749L186.889 174.368L186.601 272.55Z" fill="url(#paint20_linear_1680_6148)"/>
<g style="mix-blend-mode:soft-light">
<path d="M178.387 256.819L167.275 257.812L167.445 192.389L178.568 191.746L178.387 256.819Z" fill="white"/>
</g>
<path d="M158.835 275.249L138.945 277.184L139.169 170.056L159.094 169.128L158.835 275.249Z" fill="url(#paint21_linear_1680_6148)"/>
<g style="mix-blend-mode:soft-light" opacity="0.5">
<path d="M156.594 182.887L142.012 183.661L142.027 176.203L156.611 175.481L156.594 182.887Z" fill="white"/>
</g>
<g style="mix-blend-mode:soft-light" opacity="0.5">
<path d="M156.388 269.663L141.826 271.039L141.842 263.604L156.406 262.28L156.388 269.663Z" fill="white"/>
</g>
<path d="M139.163 170.068L124.336 171.047L124.972 282.392L139.042 282.239L139.163 170.068Z" fill="url(#paint22_linear_1680_6148)"/>
<path d="M138.94 277.184L110.967 279.904L111.134 173.75L139.159 172.415L138.94 277.184Z" fill="url(#paint23_linear_1680_6148)"/>
<g style="mix-blend-mode:soft-light">
<path d="M116.966 279.317L110.84 279.904L110.869 173.719L117.003 173.469L116.966 279.317Z" fill="white"/>
</g>
<path d="M110.961 279.905L90.1465 281.928L90.2788 172.33L111.132 171.36L110.961 279.905Z" fill="url(#paint24_linear_1680_6148)"/>
<g style="mix-blend-mode:soft-light" opacity="0.9">
<path d="M111.124 180.123L90.2734 181.178L90.2784 177.559L111.131 176.538L111.124 180.123Z" fill="white"/>
<path d="M111.113 186.096L90.2637 187.21L90.2687 183.591L111.118 182.512L111.113 186.096Z" fill="white"/>
</g>
<g style="mix-blend-mode:soft-light" opacity="0.9">
<path d="M110.985 267.601L90.166 269.506L90.1698 265.898L110.991 264.028L110.985 267.601Z" fill="white"/>
<path d="M110.974 273.555L90.1562 275.518L90.16 271.91L110.979 269.983L110.974 273.555Z" fill="white"/>
</g>
<path d="M90.3765 172.351L75.1367 174.367V284.675L90.2642 284.522L90.3765 172.351Z" fill="url(#paint25_linear_1680_6148)"/>
<path d="M90.1457 281.927L59.6973 284.889L59.7672 180.681L90.2693 179.165L90.1457 281.927Z" fill="url(#paint26_linear_1680_6148)"/>
<g style="mix-blend-mode:soft-light">
<path d="M81.1189 265.5L68.9355 266.588L68.993 198.084L81.1901 197.378L81.1189 265.5Z" fill="white"/>
</g>
<path d="M59.7006 284.891L37.8711 287.014L37.9023 174.767L59.7742 173.75L59.7006 284.891Z" fill="url(#paint27_linear_1680_6148)"/>
<g style="mix-blend-mode:soft-light" opacity="0.5">
<path d="M57.0621 188.17L41.0547 189.019L41.0572 181.205L57.0658 180.413L57.0621 188.17Z" fill="white"/>
</g>
<g style="mix-blend-mode:soft-light" opacity="0.5">
<path d="M56.9968 279.052L41.0156 280.562L41.0181 272.773L57.0005 271.321L56.9968 279.052Z" fill="white"/>
</g>
<path d="M37.987 174.844L29.6289 175.822V287.167L37.866 287.014L37.987 174.844Z" fill="url(#paint28_linear_1680_6148)"/>
<path d="M214.096 277.237L33.8477 295.064L33.8489 284.323L214.13 267.368L214.096 277.237Z" fill="#D8DEE8"/>
</g>
<path d="M130.559 28.1323C130.559 29.9148 129.249 31.3598 127.634 31.3598C126.019 31.3598 124.707 29.9148 124.707 28.1323C124.707 26.3498 126.017 24.9048 127.634 24.9048C129.25 24.9048 130.559 26.3498 130.559 28.1323Z" fill="url(#paint29_linear_1680_6148)"/>
<path d="M275.907 187.629C275.907 187.629 298.925 147.711 330.052 215.595C354.29 268.455 338.625 327.262 282.549 343.398C226.473 359.535 138.89 326.946 166.381 303.978C224.696 255.26 268.955 212.077 275.907 187.629Z" fill="url(#paint30_linear_1680_6148)"/>
<g style="mix-blend-mode:multiply" opacity="0.35">
<path d="M304.793 223.501C306.431 228.336 306.802 242.11 306.11 257.95C305.494 272.08 306.774 279.467 284.328 289.745C276.635 293.267 271.314 304.446 259.535 311.096C254.194 314.111 234.076 325.02 208.093 320.611C190.901 317.695 178.101 309.25 169.482 301.38C226.257 253.729 269.082 211.641 275.909 187.629C275.909 187.629 284.32 173.055 297.845 176.505C294.564 180.169 293.449 190.035 304.793 223.501Z" fill="url(#paint31_linear_1680_6148)"/>
</g>
<g style="mix-blend-mode:multiply" opacity="0.13">
<path d="M192.797 327.34C219.317 342.007 263.609 350.959 296.607 326.411C327.16 303.682 329.882 265.619 330.9 254.001C332.68 233.7 328.72 216.021 323.01 201.763C325.305 205.78 327.654 210.364 330.052 215.593C354.291 268.453 338.625 327.26 282.549 343.396C227.353 359.28 141.63 327.954 165.172 305.064C171.863 312.622 180.89 320.754 192.797 327.339V327.34Z" fill="url(#paint32_linear_1680_6148)"/>
</g>
<path style="mix-blend-mode:multiply" opacity="0.3" d="M234.575 331.696C235.361 331.696 236.15 331.688 236.947 331.67C257.429 331.213 286.184 324.398 306.86 294.54C324.323 269.322 321.985 240.862 316.95 221.427C311.5 200.393 301.799 185.108 301.702 184.956C301.593 184.786 301.367 184.737 301.198 184.846C301.028 184.954 300.979 185.18 301.088 185.349C301.184 185.5 310.831 200.704 316.249 221.629C321.241 240.91 323.561 269.139 306.261 294.123C285.761 323.728 257.244 330.484 236.931 330.938C214.891 331.429 197.514 324.834 197.341 324.768C197.153 324.695 196.943 324.789 196.87 324.978C196.798 325.166 196.891 325.378 197.08 325.449C197.247 325.514 213.541 331.694 234.575 331.694V331.696Z" fill="url(#paint33_linear_1680_6148)"/>
<path d="M290.6 212.791C290.6 212.791 288.776 209.922 285.828 208.336C282.88 206.75 281.413 207.911 280.188 208.385C278.964 208.857 282.165 211.77 285.541 212.846C288.919 213.921 290.598 212.791 290.598 212.791H290.6Z" fill="url(#paint34_linear_1680_6148)"/>
<path d="M274.507 205.794C274.507 205.794 271.383 204.463 268.057 204.826C264.731 205.188 264.177 206.978 263.434 208.062C262.693 209.146 266.977 209.732 270.368 208.706C273.76 207.678 274.507 205.794 274.507 205.794Z" fill="url(#paint35_linear_1680_6148)"/>
<path d="M265.213 205.88C265.213 205.88 244.538 202.991 240.758 207.567C236.976 212.145 237.082 225.032 251.355 233.336L263.825 219.341L253.051 215.319L265.214 209.309V205.88H265.213Z" fill="url(#paint36_linear_1680_6148)"/>
<path d="M124.591 327.921C126.052 326.345 128.672 319.561 123.894 318.168C119.091 316.766 116.421 314.991 109.808 309.681C103.193 304.371 101.495 308.931 110.837 317.555C120.179 326.18 122.513 330.162 124.591 327.921Z" fill="url(#paint37_linear_1680_6148)"/>
<path d="M130.852 318.016L126.918 321.457C126.096 322.176 124.9 322.268 123.978 321.685C123.549 321.412 123.273 320.952 123.237 320.445C123.2 319.937 123.406 319.442 123.793 319.111L129.544 314.182L130.852 318.017V318.016Z" fill="url(#paint38_linear_1680_6148)"/>
<path d="M248.685 284.884C255.637 290.983 241.126 310.985 217.946 304.503C189.855 296.647 154.13 300.177 130.048 319.815C128.651 318.57 125.19 316.618 126.773 315.014C148.528 292.981 168.678 280.332 185.368 276.938C210.601 271.807 228.893 267.517 248.687 284.884H248.685Z" fill="white"/>
<g style="mix-blend-mode:multiply" opacity="0.24">
<path d="M167.183 293.262C163.108 295.636 162.24 290.812 160.137 287.639C169.161 282.089 177.636 278.509 185.361 276.938C210.594 271.807 228.885 267.517 248.679 284.884C255.631 290.983 241.12 310.985 217.938 304.503C209.554 302.158 200.487 300.854 191.255 300.663C183.83 295.987 177.754 285.256 167.183 293.262Z" fill="#552D63"/>
</g>
<path d="M252.78 305.722L254.206 306.268C254.206 306.268 263.437 297.541 265.082 295.316C267.088 292.602 244.486 285.682 237.147 276.628C229.434 267.116 235.528 287.922 235.528 287.922L252.78 305.722Z" fill="url(#paint39_linear_1680_6148)"/>
<path d="M277.044 219.07C277.044 219.07 297.242 221.565 297.676 244.844C298.077 266.327 290.338 274.649 271.35 292.561C269.441 294.363 266.344 294.364 266.115 294.623C264.881 296.016 263.631 297.468 262.367 298.986C245.373 282.653 226.211 277.121 226.211 277.121C226.211 277.121 243.932 240.402 251.72 228.23C259.748 215.68 271.858 217.824 277.044 219.072V219.07Z" fill="url(#paint40_linear_1680_6148)"/>
<g style="mix-blend-mode:multiply" opacity="0.2">
<path d="M243.51 273.298C252.037 277.867 264.12 277.35 268.564 271.695C271.91 267.437 272.453 265.85 276.527 259.163C279.804 253.783 281.401 252.92 288.561 248.392C291.263 246.683 294.33 244.208 297.338 240.5C297.528 241.863 297.648 243.305 297.676 244.844C298.077 266.327 290.338 274.649 271.35 292.562C269.441 294.363 266.344 294.363 266.115 294.623C264.881 296.017 263.631 297.468 262.367 298.987C245.373 282.653 226.211 277.122 226.211 277.122C226.211 277.122 229.151 271.347 233.048 263.225C235.873 267.967 238.039 270.368 243.509 273.299L243.51 273.298Z" fill="url(#paint41_linear_1680_6148)"/>
</g>
<path d="M272.349 226.768C277.15 226.768 282.029 223.207 282.262 223.034C282.343 222.974 282.361 222.86 282.301 222.779C282.241 222.698 282.126 222.682 282.046 222.74C281.981 222.788 275.57 227.47 270.38 226.17C268.942 225.81 267.957 225.107 267.454 224.077C266.496 222.117 267.581 219.603 267.593 219.578C267.634 219.485 267.593 219.378 267.499 219.337C267.405 219.297 267.299 219.338 267.258 219.429C267.21 219.538 266.094 222.125 267.126 224.237C267.679 225.368 268.743 226.137 270.291 226.524C270.966 226.693 271.656 226.768 272.349 226.768Z" fill="#9F73F8"/>
<path d="M265.21 293.877C265.259 293.877 265.309 293.857 265.344 293.817C265.412 293.742 265.405 293.627 265.331 293.56C265.15 293.396 247.068 277.185 230.744 273.187C230.644 273.161 230.548 273.223 230.523 273.321C230.499 273.418 230.559 273.517 230.656 273.542C246.891 277.517 264.905 293.668 265.086 293.831C265.121 293.862 265.165 293.878 265.208 293.878L265.21 293.877Z" fill="#AE87F9"/>
<path d="M281.703 209.81C281.703 209.81 278.833 218.127 279.096 219.906C279.359 221.685 276.702 223.35 272.328 223.148C267.954 222.947 273.587 214.451 273.587 214.451L281.703 209.81Z" fill="url(#paint42_linear_1680_6148)"/>
<path d="M269.549 207.427C265.815 203.976 268.688 192.907 271.347 192.677C272.873 192.546 272.707 196.138 276.845 199.283C280.068 201.732 282.836 201.579 283.62 204.038C283.988 205.193 283.854 206.727 283.343 207.917C283.079 208.529 282.584 209.286 281.494 210.721C280.527 211.994 280.591 211.953 280.295 212.322C279.585 213.211 278.225 214.698 275.777 216.386C275.674 215.711 275.501 214.871 275.191 213.949C275.071 213.596 274.588 212.209 273.778 211.024C272.304 208.867 270.62 208.416 269.549 207.426V207.427Z" fill="url(#paint43_linear_1680_6148)"/>
<path d="M278.887 214.758C278.887 214.758 276.271 218.321 271.74 217.628C267.681 217.007 267.878 207.788 270.654 206.069C271.58 205.496 273.345 205.378 274.726 205.898C275.542 206.206 275.796 206.578 277.139 207.054C278.378 207.493 278.749 207.384 279.103 207.739C279.547 208.184 279.812 209.204 278.78 211.814C279.627 211.092 280.588 210.871 281.222 211.241C281.323 211.299 281.588 211.516 281.72 211.818C282.2 212.914 281.13 214.169 278.887 214.756V214.758Z" fill="url(#paint44_linear_1680_6148)"/>
<path d="M254.749 278.847C254.934 278.873 255.103 279.007 255.149 279.183C255.155 279.209 255.084 280.125 255.086 280.153C255.104 280.365 254.974 280.564 254.771 280.63L237.595 286.218L205.498 273.628L220.749 274.795L254.749 278.847Z" fill="#26264F"/>
<path d="M254.754 278.721C254.965 278.752 255.128 278.925 255.146 279.137C255.164 279.351 255.034 279.549 254.831 279.615L237.655 285.202L205.557 272.612L220.808 273.78L254.754 278.721Z" fill="#444B8C"/>
<path d="M238.421 284.951L235.862 251.417C235.821 250.879 235.417 250.44 234.885 250.357L196.447 244.33C196.102 244.277 195.753 244.38 195.493 244.613C195.233 244.845 195.092 245.183 195.109 245.532L196.551 276.789C196.576 277.329 196.97 277.779 197.499 277.878L237.431 285.283L238.421 284.951Z" fill="url(#paint45_linear_1680_6148)"/>
<path d="M237.594 286.215L234.955 251.94C234.914 251.403 234.51 250.965 233.978 250.881L195.538 244.855C195.194 244.801 194.844 244.905 194.585 245.138C194.325 245.37 194.184 245.708 194.2 246.056L195.643 277.318C195.668 277.855 196.058 278.305 196.585 278.405L237.594 286.213V286.215Z" fill="#26264F"/>
<path d="M237.591 286.214L196.583 278.407C196.055 278.307 195.666 277.857 195.641 277.319L195.205 267.891C207.421 274.839 222.731 275.723 236.998 278.509L237.591 286.214Z" fill="#1F1F44"/>
<path d="M168.133 279.188C168.694 277.238 169.933 275.084 165.51 273.512C162.3 272.371 156.723 272.004 151.653 271.743C144.549 271.378 142.915 275.634 153.297 278.343C160.095 280.117 167.335 281.961 168.132 279.188H168.133Z" fill="url(#paint46_linear_1680_6148)"/>
<path d="M162.602 276.203C162.536 277.294 163.229 278.151 164.135 278.279C166.236 278.581 165.842 277.497 165.909 276.406C165.975 275.314 166.825 274.557 164.377 274.329C163.466 274.244 162.669 275.112 162.602 276.203Z" fill="url(#paint47_linear_1680_6148)"/>
<path d="M184.17 269.93L182.096 269.602C182.096 269.602 178.055 269.981 166.916 273.056C164.531 273.452 161.281 280.422 168.268 280.696C175.254 280.97 183.757 286.179 183.757 286.179L184.17 269.928V269.93Z" fill="white"/>
<path d="M256.706 302.357C256.706 302.357 255.689 311.402 234.691 310.579C213.692 309.756 176.181 287.924 176.417 276.468C176.653 265.011 190.612 269.588 205.065 276.21C217.263 281.799 236.107 285.036 239.969 285.636C244.913 286.405 257.9 298.014 256.706 302.357Z" fill="white"/>
<g style="mix-blend-mode:multiply" opacity="0.2">
<path d="M229.225 291.022C219.505 290.031 217.322 283.045 205.228 281.025C197.39 279.716 194.622 282.035 190.627 279.355C187.473 277.238 185.863 273.55 185.088 269.543C190.448 269.998 197.683 272.83 205.058 276.21C216.907 281.638 235.022 284.848 239.592 285.578C239.727 285.6 242.791 284.502 242.791 284.502C242.791 284.502 245.071 285.807 246.707 286.837C240.336 290.258 232.774 291.385 229.225 291.022Z" fill="url(#paint48_linear_1680_6148)"/>
</g>
<path d="M285.181 221.969C285.181 221.969 290.905 224.128 300.882 226.768C311.661 229.62 287.585 214.94 287.585 214.94L290.381 208.73C290.381 208.73 324.33 216.738 318.221 237.648C315.801 245.934 289.072 244.842 279.925 244.842C273.31 244.842 285.183 221.97 285.183 221.97L285.181 221.969Z" fill="url(#paint49_linear_1680_6148)"/>
<defs>
<linearGradient id="paint0_linear_1680_6148" x1="253.509" y1="11.9666" x2="267.997" y2="245.51" gradientUnits="userSpaceOnUse">
<stop stop-color="#FFC444"/>
<stop offset="1" stop-color="#F36F56"/>
</linearGradient>
<linearGradient id="paint1_linear_1680_6148" x1="239.582" y1="103.831" x2="280.564" y2="110.965" gradientUnits="userSpaceOnUse">
<stop stop-color="#FF9085"/>
<stop offset="1" stop-color="#FB6FBB"/>
</linearGradient>
<linearGradient id="paint2_linear_1680_6148" x1="283.451" y1="153.813" x2="345.914" y2="-22.3858" gradientUnits="userSpaceOnUse">
<stop stop-color="#E38DDD"/>
<stop offset="1" stop-color="#9571F6"/>
</linearGradient>
<linearGradient id="paint3_linear_1680_6148" x1="300.472" y1="116.107" x2="247.054" y2="399.689" gradientUnits="userSpaceOnUse">
<stop stop-color="#E38DDD"/>
<stop offset="1" stop-color="#9571F6"/>
</linearGradient>
<linearGradient id="paint4_linear_1680_6148" x1="264.839" y1="239.477" x2="218.448" y2="190.308" gradientUnits="userSpaceOnUse">
<stop stop-color="#FF9085"/>
<stop offset="1" stop-color="#FB6FBB"/>
</linearGradient>
<linearGradient id="paint5_linear_1680_6148" x1="111.544" y1="228.059" x2="91.4912" y2="662.427" gradientUnits="userSpaceOnUse">
<stop stop-color="#26264F"/>
<stop offset="1" stop-color="#444B8C"/>
</linearGradient>
<linearGradient id="paint6_linear_1680_6148" x1="130.556" y1="-12.7729" x2="110.504" y2="421.596" gradientUnits="userSpaceOnUse">
<stop stop-color="#444B8C"/>
<stop offset="1" stop-color="#26264F"/>
</linearGradient>
<linearGradient id="paint7_linear_1680_6148" x1="130.493" y1="13.3113" x2="113.485" y2="381.732" gradientUnits="userSpaceOnUse">
<stop offset="0.49" stop-color="#EBEFF2"/>
<stop offset="1" stop-color="white"/>
</linearGradient>
<linearGradient id="paint8_linear_1680_6148" x1="90.293" y1="100.785" x2="111.325" y2="100.785" gradientUnits="userSpaceOnUse">
<stop stop-color="#FF9085"/>
<stop offset="1" stop-color="#FB6FBB"/>
</linearGradient>
<linearGradient id="paint9_linear_1680_6148" x1="79.5898" y1="100.993" x2="90.4228" y2="100.993" gradientUnits="userSpaceOnUse">
<stop stop-color="#FF9085"/>
<stop offset="1" stop-color="#FB6FBB"/>
</linearGradient>
<linearGradient id="paint10_linear_1680_6148" x1="79.5179" y1="-17.0921" x2="69.7214" y2="249.455" gradientUnits="userSpaceOnUse">
<stop stop-color="#AA80F9"/>
<stop offset="1" stop-color="#6165D7"/>
</linearGradient>
<linearGradient id="paint11_linear_1680_6148" x1="56.3864" y1="16.6738" x2="16.7942" y2="458.916" gradientUnits="userSpaceOnUse">
<stop stop-color="#FFC444"/>
<stop offset="1" stop-color="#F36F56"/>
</linearGradient>
<linearGradient id="paint12_linear_1680_6148" x1="27.0996" y1="101.589" x2="37.9326" y2="101.589" gradientUnits="userSpaceOnUse">
<stop stop-color="#FFC444"/>
<stop offset="1" stop-color="#F36F56"/>
</linearGradient>
<linearGradient id="paint13_linear_1680_6148" x1="201.589" y1="53.4792" x2="185.199" y2="203.828" gradientUnits="userSpaceOnUse">
<stop stop-color="#E38DDD"/>
<stop offset="1" stop-color="#9571F6"/>
</linearGradient>
<linearGradient id="paint14_linear_1680_6148" x1="176.387" y1="99.8291" x2="187.218" y2="99.8291" gradientUnits="userSpaceOnUse">
<stop stop-color="#E38DDD"/>
<stop offset="1" stop-color="#9571F6"/>
</linearGradient>
<linearGradient id="paint15_linear_1680_6148" x1="177.406" y1="-13.0284" x2="168.055" y2="241.352" gradientUnits="userSpaceOnUse">
<stop stop-color="#40447E"/>
<stop offset="1" stop-color="#3C3B6B"/>
</linearGradient>
<linearGradient id="paint16_linear_1680_6148" x1="156.451" y1="19.2394" x2="118.692" y2="441.01" gradientUnits="userSpaceOnUse">
<stop stop-color="#AA80F9"/>
<stop offset="1" stop-color="#6165D7"/>
</linearGradient>
<linearGradient id="paint17_linear_1680_6148" x1="128.594" y1="100.108" x2="139.425" y2="100.108" gradientUnits="userSpaceOnUse">
<stop stop-color="#AA80F9"/>
<stop offset="1" stop-color="#6165D7"/>
</linearGradient>
<linearGradient id="paint18_linear_1680_6148" x1="204.134" y1="136.781" x2="186.349" y2="322.456" gradientUnits="userSpaceOnUse">
<stop stop-color="#FFC444"/>
<stop offset="1" stop-color="#F36F56"/>
</linearGradient>
<linearGradient id="paint19_linear_1680_6148" x1="172.061" y1="224.026" x2="186.887" y2="224.026" gradientUnits="userSpaceOnUse">
<stop stop-color="#FFC444"/>
<stop offset="1" stop-color="#F36F56"/>
</linearGradient>
<linearGradient id="paint20_linear_1680_6148" x1="177.124" y1="107.09" x2="167.665" y2="364.485" gradientUnits="userSpaceOnUse">
<stop stop-color="#AA80F9"/>
<stop offset="1" stop-color="#6165D7"/>
</linearGradient>
<linearGradient id="paint21_linear_1680_6148" x1="156.233" y1="141.631" x2="118.235" y2="566.076" gradientUnits="userSpaceOnUse">
<stop stop-color="#FF9085"/>
<stop offset="1" stop-color="#FB6FBB"/>
</linearGradient>
<linearGradient id="paint22_linear_1680_6148" x1="124.336" y1="226.229" x2="139.163" y2="226.229" gradientUnits="userSpaceOnUse">
<stop stop-color="#FF9085"/>
<stop offset="1" stop-color="#FB6FBB"/>
</linearGradient>
<linearGradient id="paint23_linear_1680_6148" x1="127.799" y1="170.791" x2="120.953" y2="305.884" gradientUnits="userSpaceOnUse">
<stop stop-color="#AA80F9"/>
<stop offset="1" stop-color="#6165D7"/>
</linearGradient>
<linearGradient id="paint24_linear_1680_6148" x1="108.87" y1="139.717" x2="90.236" y2="334.25" gradientUnits="userSpaceOnUse">
<stop stop-color="#FFC444"/>
<stop offset="1" stop-color="#F36F56"/>
</linearGradient>
<linearGradient id="paint25_linear_1680_6148" x1="75.1367" y1="228.513" x2="90.3765" y2="228.513" gradientUnits="userSpaceOnUse">
<stop stop-color="#FFC444"/>
<stop offset="1" stop-color="#F36F56"/>
</linearGradient>
<linearGradient id="paint26_linear_1680_6148" x1="79.4512" y1="108.611" x2="69.5333" y2="378.462" gradientUnits="userSpaceOnUse">
<stop stop-color="#40447E"/>
<stop offset="1" stop-color="#3C3B6B"/>
</linearGradient>
<linearGradient id="paint27_linear_1680_6148" x1="56.3833" y1="144.874" x2="16.5295" y2="590.048" gradientUnits="userSpaceOnUse">
<stop stop-color="#E38DDD"/>
<stop offset="1" stop-color="#9571F6"/>
</linearGradient>
<linearGradient id="paint28_linear_1680_6148" x1="29.6289" y1="231.005" x2="37.987" y2="231.005" gradientUnits="userSpaceOnUse">
<stop stop-color="#E38DDD"/>
<stop offset="1" stop-color="#9571F6"/>
</linearGradient>
<linearGradient id="paint29_linear_1680_6148" x1="127.571" y1="29.456" x2="127.143" y2="38.7434" gradientUnits="userSpaceOnUse">
<stop stop-color="#26264F"/>
<stop offset="1" stop-color="#444B8C"/>
</linearGradient>
<linearGradient id="paint30_linear_1680_6148" x1="297.101" y1="199.48" x2="160.137" y2="491.611" gradientUnits="userSpaceOnUse">
<stop stop-color="#FFC444"/>
<stop offset="1" stop-color="#F36F56"/>
</linearGradient>
<linearGradient id="paint31_linear_1680_6148" x1="281.422" y1="192.127" x2="144.456" y2="484.256" gradientUnits="userSpaceOnUse">
<stop stop-color="#FFC444"/>
<stop offset="1" stop-color="#F36F56"/>
</linearGradient>
<linearGradient id="paint32_linear_1680_6148" x1="297.101" y1="199.478" x2="160.135" y2="491.609" gradientUnits="userSpaceOnUse">
<stop stop-color="#FFC444"/>
<stop offset="1" stop-color="#F36F56"/>
</linearGradient>
<linearGradient id="paint33_linear_1680_6148" x1="320.605" y1="258.243" x2="196.845" y2="258.243" gradientUnits="userSpaceOnUse">
<stop stop-color="#FFC444"/>
<stop offset="1" stop-color="#F36F56"/>
</linearGradient>
<linearGradient id="paint34_linear_1680_6148" x1="287.808" y1="220.62" x2="285.284" y2="210.97" gradientUnits="userSpaceOnUse">
<stop stop-color="#AB316D"/>
<stop offset="1" stop-color="#792D3D"/>
</linearGradient>
<linearGradient id="paint35_linear_1680_6148" x1="276.606" y1="213.816" x2="269.068" y2="207.297" gradientUnits="userSpaceOnUse">
<stop stop-color="#AB316D"/>
<stop offset="1" stop-color="#792D3D"/>
</linearGradient>
<linearGradient id="paint36_linear_1680_6148" x1="269.726" y1="254.116" x2="254.549" y2="218.236" gradientUnits="userSpaceOnUse">
<stop stop-color="#AA80F9"/>
<stop offset="1" stop-color="#6165D7"/>
</linearGradient>
<linearGradient id="paint37_linear_1680_6148" x1="125.638" y1="327.062" x2="106.971" y2="305.659" gradientUnits="userSpaceOnUse">
<stop stop-color="#40447E"/>
<stop offset="1" stop-color="#3C3B6B"/>
</linearGradient>
<linearGradient id="paint38_linear_1680_6148" x1="175.174" y1="257.837" x2="-29.2603" y2="516.113" gradientUnits="userSpaceOnUse">
<stop stop-color="#FFC444"/>
<stop offset="1" stop-color="#F36F56"/>
</linearGradient>
<linearGradient id="paint39_linear_1680_6148" x1="306.853" y1="305.897" x2="181.295" y2="274.583" gradientUnits="userSpaceOnUse">
<stop stop-color="#D8DEE8"/>
<stop offset="1" stop-color="#AABBCC"/>
</linearGradient>
<linearGradient id="paint40_linear_1680_6148" x1="254.494" y1="289.416" x2="271.74" y2="235.92" gradientUnits="userSpaceOnUse">
<stop stop-color="#AA80F9"/>
<stop offset="1" stop-color="#6165D7"/>
</linearGradient>
<linearGradient id="paint41_linear_1680_6148" x1="254.497" y1="289.417" x2="271.742" y2="235.92" gradientUnits="userSpaceOnUse">
<stop stop-color="#AA80F9"/>
<stop offset="1" stop-color="#6165D7"/>
</linearGradient>
<linearGradient id="paint42_linear_1680_6148" x1="274.611" y1="229.103" x2="277.557" y2="203.401" gradientUnits="userSpaceOnUse">
<stop stop-color="#AB316D"/>
<stop offset="1" stop-color="#792D3D"/>
</linearGradient>
<linearGradient id="paint43_linear_1680_6148" x1="284.186" y1="232.934" x2="273.008" y2="194.794" gradientUnits="userSpaceOnUse">
<stop stop-color="#311944"/>
<stop offset="1" stop-color="#6B3976"/>
</linearGradient>
<linearGradient id="paint44_linear_1680_6148" x1="275.716" y1="208.044" x2="270.382" y2="246.09" gradientUnits="userSpaceOnUse">
<stop stop-color="#AB316D"/>
<stop offset="1" stop-color="#792D3D"/>
</linearGradient>
<linearGradient id="paint45_linear_1680_6148" x1="239.57" y1="266.218" x2="194.01" y2="263.436" gradientUnits="userSpaceOnUse">
<stop stop-color="#40447E"/>
<stop offset="1" stop-color="#3C3B6B"/>
</linearGradient>
<linearGradient id="paint46_linear_1680_6148" x1="167.981" y1="279.571" x2="146.971" y2="271.04" gradientUnits="userSpaceOnUse">
<stop stop-color="#40447E"/>
<stop offset="1" stop-color="#3C3B6B"/>
</linearGradient>
<linearGradient id="paint47_linear_1680_6148" x1="172.331" y1="269.189" x2="-70.4123" y2="491.748" gradientUnits="userSpaceOnUse">
<stop stop-color="#FFC444"/>
<stop offset="1" stop-color="#F36F56"/>
</linearGradient>
<linearGradient id="paint48_linear_1680_6148" x1="260.52" y1="294.776" x2="184.685" y2="273.686" gradientUnits="userSpaceOnUse">
<stop stop-color="#311944"/>
<stop offset="1" stop-color="#6B3976"/>
</linearGradient>
<linearGradient id="paint49_linear_1680_6148" x1="316.959" y1="280.297" x2="295.762" y2="230.182" gradientUnits="userSpaceOnUse">
<stop stop-color="#AA80F9"/>
<stop offset="1" stop-color="#6165D7"/>
</linearGradient>
</defs>
</svg>
