<svg width="192" height="272" viewBox="0 0 192 272" fill="none" xmlns="http://www.w3.org/2000/svg">
<path d="M137.519 0H54.4811C24.392 0 0 24.5848 0 54.9117V217.088C0 247.415 24.392 272 54.4811 272H137.519C167.608 272 192 247.415 192 217.088V54.9117C192 24.5848 167.608 0 137.519 0Z" fill="#233973"/>
<path d="M79.3365 234.079C79.3365 233.904 79.2653 233.733 79.105 233.567C78.6774 233.154 78.0895 233.226 77.417 233.832C75.8004 235.335 74.3841 236.094 73.2039 236.094C72.7496 236.094 72.4334 235.991 72.2597 235.789C72.2464 235.771 72.233 235.753 72.2241 235.735C74.2461 235.192 75.8048 234.249 76.8514 232.929C77.4348 232.202 77.7154 231.583 77.7154 231.035C77.7154 230.73 77.6085 230.299 77.0919 229.967C76.8024 229.792 76.4773 229.706 76.1299 229.706C75.0165 229.706 73.774 230.277 72.3354 231.444C70.5763 232.867 69.6855 234.366 69.6855 235.901C69.6855 236.538 69.8815 237.055 70.2779 237.441C70.8079 237.952 71.5338 238.208 72.429 238.208C73.244 238.208 74.1347 238.002 75.0744 237.602C75.9874 237.207 76.8648 236.696 77.6709 236.072C79.145 234.94 79.3454 234.447 79.3454 234.079H79.3365ZM74.5667 232.323C74.8339 232.153 75.0299 232.05 75.1769 231.991C74.7849 232.499 74.2505 232.961 73.5869 233.369C73.4711 233.437 73.3375 233.504 73.195 233.571C73.6003 233.064 74.0635 232.647 74.5712 232.323H74.5667ZM107.488 236.871C107.065 236.714 106.971 236.651 106.98 236.664C106.82 236.525 106.744 236.368 106.744 236.148C106.744 235.784 106.896 235.273 107.189 234.622C107.479 233.984 107.764 233.468 108.049 233.091C108.414 232.597 108.575 232.252 108.575 231.969C108.575 231.803 108.521 231.632 108.419 231.462C108.548 231.183 108.606 230.954 108.606 230.752C108.606 230.488 108.512 230.097 108.049 229.742C107.679 229.473 107.225 229.334 106.691 229.334C105.916 229.334 105.114 229.572 104.295 230.039C103.244 230.645 102.317 231.489 101.533 232.552C101.547 232.499 101.551 232.445 101.551 232.391C101.551 232.234 101.498 232.005 101.239 231.803C100.901 231.533 100.531 231.547 100.037 231.807C98.9681 232.382 98.4025 232.566 98.1085 232.62C98.2689 232.44 98.6163 232.135 99.36 231.664C99.7564 231.408 100.157 231.089 100.157 230.676C100.157 230.474 100.068 230.281 99.9078 230.11C99.6629 229.828 99.3912 229.684 99.1017 229.684C98.9726 229.684 98.8122 229.72 98.398 229.913C97.8413 230.178 97.3113 230.465 96.8215 230.77C96.581 230.918 96.3449 231.071 96.1089 231.224C96.1623 231.111 96.1846 230.999 96.1846 230.892C96.1846 230.725 96.1311 230.42 95.757 230.191C95.1157 229.819 94.3007 230.097 93.3298 231.098C92.6395 231.803 91.9715 232.709 91.3212 233.805C91.2544 233.5 91.0095 233.235 90.5374 233.235C90.1544 233.235 89.7936 233.45 89.4329 233.89C89.0365 234.361 88.5377 234.833 87.9454 235.295C87.1037 235.977 86.3733 236.323 85.772 236.323C85.5716 236.323 85.4246 236.247 85.2999 236.081C85.1931 235.937 85.1396 235.748 85.1396 235.506C85.1396 234.909 85.4425 233.998 86.0437 232.799C86.7964 232.413 87.5401 232.13 88.2482 231.96C89.1612 231.749 89.2993 231.237 89.2993 230.95C89.2993 230.663 89.1657 230.434 88.9564 230.299C88.7738 230.155 88.5555 230.079 88.3239 230.079C88.0211 230.079 87.5891 230.178 86.9611 230.389C86.881 230.416 86.8008 230.443 86.7251 230.474C86.7964 230.425 86.8676 230.38 86.9389 230.33C89.2815 228.71 90.9739 227.3 91.967 226.142C92.9735 224.948 93.4634 223.97 93.4634 223.148C93.4634 222.744 93.2853 222.394 92.9602 222.134C92.7019 221.918 92.399 221.806 92.065 221.806C91.4682 221.806 90.7244 222.08 89.7936 222.637C88.8183 223.216 87.7093 224.145 86.498 225.388C84.2845 227.646 82.1779 230.465 80.2406 233.764C78.7442 236.332 78.5393 236.983 78.5393 237.306C78.5393 237.544 78.6418 237.768 78.8511 237.979C79.0471 238.163 79.292 238.262 79.5592 238.262C80.009 238.262 80.4544 237.975 80.9087 237.387C81.6747 236.417 82.3338 235.65 82.8727 235.098C82.8371 235.326 82.8193 235.528 82.8193 235.708C82.8193 236.287 82.9662 236.844 83.2468 237.36C83.6566 238.123 84.3825 238.527 85.34 238.527C86.7919 238.527 88.2839 237.75 89.7803 236.224C90.0074 235.995 90.1945 235.793 90.3637 235.605C89.5977 237.176 89.4863 237.652 89.4863 237.903C89.4863 238.329 89.7536 238.787 90.5107 238.787C90.8625 238.787 91.3702 238.653 91.78 238.006C92.3946 237.019 93.027 236.179 93.6416 235.515C94.3141 234.837 94.9376 234.276 95.4987 233.845C95.5789 234.159 95.7749 234.402 96.0688 234.541C96.4117 234.712 96.7858 234.797 97.1867 234.797C98.0863 234.797 99.0438 234.501 100.019 233.917C100.522 233.621 100.883 233.374 101.128 233.145C100.407 234.276 100.037 235.34 100.037 236.31C100.037 236.776 100.166 237.194 100.424 237.544C100.816 238.078 101.395 238.356 102.095 238.356C102.856 238.356 103.618 237.988 104.361 237.261C104.442 237.18 104.522 237.1 104.602 237.01C104.687 237.423 104.883 237.782 105.194 238.083C105.684 238.563 106.276 238.805 106.958 238.805C107.256 238.805 107.524 238.724 107.755 238.567C108.022 238.383 108.169 238.119 108.169 237.809C108.169 237.373 107.92 237.032 107.488 236.866V236.871ZM102.509 236.018C102.509 236.018 102.478 235.959 102.478 235.852C102.478 235.12 102.959 234.177 103.903 233.055C104.736 232.063 105.493 231.565 106.143 231.565C106.21 231.565 106.272 231.578 106.334 231.605C106.294 231.641 106.263 231.677 106.232 231.713C106.045 231.924 105.773 232.328 105.39 232.938C104.851 233.818 104.393 234.492 104.032 234.94C102.945 236.319 102.513 236.018 102.509 236.018ZM88.8539 226.591C87.9677 227.422 87.0279 228.162 86.0526 228.818C86.8498 227.794 87.6292 226.901 88.3774 226.147C89.7936 224.733 90.5196 224.306 90.8803 224.185C90.8224 224.293 90.7334 224.455 90.5775 224.675C90.1499 225.28 89.571 225.927 88.8584 226.591H88.8539ZM116.333 233.091C116.698 232.597 116.858 232.252 116.858 231.969C116.858 231.803 116.805 231.632 116.702 231.462C116.832 231.183 116.889 230.954 116.889 230.752C116.889 230.488 116.796 230.097 116.333 229.742C115.963 229.473 115.509 229.334 114.974 229.334C114.199 229.334 113.398 229.572 112.578 230.039C111.376 230.73 110.338 231.735 109.492 233.019C108.717 234.2 108.325 235.304 108.325 236.305C108.325 236.772 108.454 237.189 108.713 237.539C109.105 238.074 109.684 238.352 110.383 238.352C111.144 238.352 111.906 237.984 112.65 237.257C112.73 237.176 112.81 237.095 112.89 237.005C112.975 237.418 113.171 237.777 113.482 238.078C113.972 238.558 114.565 238.801 115.246 238.801C115.544 238.801 115.812 238.72 116.043 238.563C116.31 238.379 116.457 238.114 116.457 237.804C116.457 237.369 116.208 237.028 115.776 236.862C115.353 236.705 115.259 236.642 115.268 236.655C115.108 236.516 115.032 236.359 115.032 236.139C115.032 235.775 115.184 235.264 115.478 234.613C115.767 233.975 116.052 233.459 116.337 233.082L116.333 233.091ZM110.792 236.018C110.792 236.018 110.761 235.959 110.761 235.852C110.761 235.12 111.242 234.177 112.186 233.055C113.019 232.063 113.776 231.565 114.427 231.565C114.493 231.565 114.556 231.578 114.618 231.605C114.578 231.641 114.547 231.677 114.516 231.713C114.329 231.924 114.057 232.328 113.674 232.938C113.135 233.818 112.676 234.492 112.316 234.94C111.229 236.319 110.797 236.018 110.792 236.018Z" fill="white"/>
<path d="M69.2135 196.628C75.9563 188.813 87.4244 181.29 87.4244 181.29C135.987 158.855 142.729 148.701 142.729 148.701C160.602 128.309 155.542 93.6594 155.542 93.6594C154.883 72.1535 147.183 61.2861 141.914 56.3349C136.436 51.1862 127.988 50.8137 122.221 55.6347C122.114 55.7244 122.007 55.8142 121.904 55.9085C118.186 59.1629 115.856 63.7415 115.259 68.6657C112.765 89.1437 115.883 101.241 115.883 101.241C117.152 110.138 127.894 114.685 127.894 114.685C138.686 120.435 149.477 111.072 149.477 111.072C143.215 126.854 125.872 135.792 125.872 135.792C105.301 145.308 81.6926 159.928 81.6926 159.928C60.4488 174.543 55.051 193.293 55.051 193.293C46.6203 212.151 49.4261 256.46 49.4261 256.46H51.1541C48.7937 214.314 69.218 196.637 69.218 196.637L69.2135 196.628ZM120.136 83.1017C133.965 67.126 145.767 87.1821 145.767 87.1821C133.626 98.3996 120.136 83.1017 120.136 83.1017ZM162.953 91.9941V116.014C162.953 151.817 152.835 165.867 152.835 165.867C146.876 178.862 130.656 190.043 119.099 196.714C113.518 199.932 107.679 202.675 101.68 205.009C70.0953 217.299 63.357 237.472 63.357 237.472H56.8369C56.8369 196.682 95.7304 182.408 95.7304 182.408C124.879 170.836 138.69 157.185 143.273 151.87C144.506 150.439 145.762 149.02 147.049 147.633C164.289 128.986 160.931 91.9986 160.931 91.9986H162.953V91.9941ZM56.298 115.937C53.6749 100.173 52.361 88.2908 52.361 80.2873C52.361 68.953 57.5629 59.0462 67.971 50.5578L68.1046 51.7653C68.1046 53.9154 67.6459 57.1653 66.7373 61.515C65.8243 65.8647 65.3701 69.1415 65.3701 71.3455C65.3701 79.2952 66.3053 91.1143 68.1714 106.798C70.0375 122.482 70.9727 134.274 70.9727 142.17C70.9727 157.585 66.2341 169.35 56.7612 177.461L55.2247 175.688C56.2936 173.004 57.3936 168.852 58.5293 163.241C59.665 157.63 60.2306 153.424 60.2306 150.632C60.2306 143.274 58.9168 131.711 56.2936 115.946L56.298 115.937ZM132.798 39.3986C132.798 34.9143 136.405 31.2783 140.854 31.2783C145.304 31.2783 148.911 34.9143 148.911 39.3986C148.911 43.8829 145.304 47.5189 140.854 47.5189C136.405 47.5189 132.798 43.8829 132.798 39.3986ZM109.897 39.3986C109.897 34.9143 113.505 31.2783 117.954 31.2783C122.403 31.2783 126.011 34.9143 126.011 39.3986C126.011 43.8829 122.403 47.5189 117.954 47.5189C113.505 47.5189 109.897 43.8829 109.897 39.3986Z" fill="white"/>
</svg>
