<svg width="143" height="150" viewBox="0 0 143 150" fill="none" xmlns="http://www.w3.org/2000/svg">
<path d="M136.199 85.2754C136.199 49.7841 107.405 21.0137 71.8846 21.0137C36.3645 21.0137 7.57227 49.7857 7.57227 85.2754C7.57227 120.765 36.3661 149.535 71.8846 149.535C107.403 149.535 136.199 120.765 136.199 85.2754Z" fill="#233973"/>
<mask id="mask0_1680_5404" style="mask-type:luminance" maskUnits="userSpaceOnUse" x="7" y="21" width="130" height="129">
<path d="M136.199 85.2754C136.199 49.7841 107.405 21.0137 71.8846 21.0137C36.3645 21.0137 7.57227 49.7857 7.57227 85.2754C7.57227 120.765 36.3661 149.535 71.8846 149.535C107.403 149.535 136.199 120.765 136.199 85.2754Z" fill="white"/>
</mask>
<g mask="url(#mask0_1680_5404)">
<path d="M103.389 98.4102C103.389 98.4102 100.669 96.8026 97.049 95.0046C96.3391 94.6523 92.0539 91.0958 89.0822 88.7217V76.9844H55.2854V88.052C52.4852 90.1944 47.8125 93.9016 45.832 94.9347C40.9147 97.5025 41.0735 99.2434 41.0735 99.2434L36.0752 112.342L50.897 136.747L71.7732 143.382L92.6527 136.747L107.473 112.342L103.393 98.4102H103.389Z" fill="#F9F9F9"/>
<path d="M139.842 118.741C139.842 118.741 138.54 115.305 134.391 113.054C131.627 111.555 97.0508 95.0064 97.0508 95.0064C97.0508 95.0064 88.9935 113.818 72.3293 113.818C72.2245 113.796 72.1212 113.787 72.0148 113.761C71.7671 113.885 71.5209 113.761 71.5209 113.761C71.1683 113.796 70.8363 113.807 70.4949 113.833C55.9574 113.444 45.8321 94.9365 45.8321 94.9365C45.8321 94.9365 13.3059 110.803 9.15574 113.054C5.00559 115.305 3.7032 118.741 3.7032 118.741L0.617188 150H142.925L139.84 118.741H139.842Z" fill="#262628"/>
<g style="mix-blend-mode:multiply">
<path d="M89.0824 66.2406L55.2871 66.1152V82.258C60.4522 85.6224 67.9155 88.3044 72.1847 88.4695C76.327 88.6298 83.9666 85.3574 89.0824 82.0597V66.2438V66.2406Z" fill="#E8E8E8"/>
</g>
</g>
<path d="M49.4961 45.8269C49.1801 43.5496 47.5489 41.8928 45.8558 42.1277C44.1611 42.3625 43.0446 44.4002 43.3606 46.6775C43.6767 48.9564 45.3079 50.6117 47.0025 50.3768C48.6956 50.1419 49.8138 48.1058 49.4977 45.8269H49.4961Z" fill="#E2E2E2"/>
<path d="M95.6464 45.8269C95.9625 43.5496 97.5936 41.8928 99.2867 42.1277C100.981 42.3625 102.098 44.4002 101.782 46.6775C101.466 48.9564 99.8347 50.6117 98.14 50.3768C96.4469 50.1419 95.3303 48.1058 95.6448 45.8269H95.6464Z" fill="#F9F9F9"/>
<path d="M101.837 19.2107C100.885 10.468 89.3441 0.250977 72.1908 0.250977H72.1844C55.0343 0.250977 43.9306 10.5283 42.5361 19.2107C44.3404 38.6639 46.7276 56.3445 50.4076 74.0076C53.6318 79.1367 66.1252 84.4404 72.1844 84.6737C78.2437 84.907 91.7805 77.8005 93.966 74.0076C98.8658 56.8475 101.458 34.9281 101.837 19.2107Z" fill="#F9F9F9"/>
<path d="M72.1893 0.25061H72.183C72.0432 0.25061 71.9082 0.256958 71.77 0.258545V84.6463C71.9082 84.6559 72.0496 84.667 72.183 84.6717C78.2422 84.905 91.7791 77.7985 93.9646 74.0056C98.8644 56.8456 101.456 34.9262 101.836 19.2087C100.883 10.466 89.3427 0.249023 72.1893 0.249023V0.25061Z" fill="#FCFCFC"/>
<path d="M72.1894 0H72.1831C54.8328 0 42.4887 10.29 42.1901 19.1787C42.0122 24.4903 43.2146 29.7956 43.8054 35.1056C44.1278 38.0051 44.9776 41.2647 45.3349 44.1451C45.3127 42.5692 44.6345 20.7657 54.4103 20.7657C60.4553 20.7657 62.5486 23.7746 72.6326 23.7778C82.7197 23.7746 84.8114 20.7657 90.858 20.7657C99.9699 20.7657 99.9556 39.1334 99.9604 43.2961C100.281 40.4792 101.042 37.5385 101.279 34.8327C101.768 29.1481 102.378 23.7984 102.181 19.1787C101.804 10.2932 89.5429 0 72.1894 0Z" fill="#262628"/>
</svg>
