<svg width="25" height="24" viewBox="0 0 25 24" fill="none" xmlns="http://www.w3.org/2000/svg">
<path d="M3.67094 3C3.67029 3 3.66957 3 3.66892 3C3.44193 3 3.22843 3.08849 3.06722 3.24929C2.90423 3.41188 2.81445 3.62837 2.81445 3.85883V16.7369C2.81445 17.2091 3.20015 17.5942 3.67433 17.5954C5.67337 17.6002 9.02256 18.0169 11.333 20.4347V6.95751C11.333 6.79743 11.2921 6.64704 11.215 6.5226C9.31864 3.46869 5.6745 3.00469 3.67094 3Z" fill="#233973"/>
<path d="M21.1855 16.7369V3.85883C21.1855 3.62837 21.0957 3.41188 20.9327 3.24929C20.7715 3.08849 20.5578 3 20.3311 3C20.3304 3 20.3296 3 20.329 3C18.3255 3.00477 14.6814 3.46877 12.785 6.52268C12.7078 6.64712 12.667 6.79751 12.667 6.95759V20.4347C14.9775 18.0169 18.3266 17.6002 20.3257 17.5954C20.7998 17.5942 21.1855 17.2091 21.1855 16.7369Z" fill="#233973"/>
<path d="M23.1416 5.96973H22.5189V16.7367C22.5189 17.9425 21.5365 18.9256 20.3289 18.9286C18.6333 18.9327 15.8375 19.2642 13.8574 21.1383C17.2819 20.2998 20.892 20.8448 22.9493 21.3137C23.2062 21.3722 23.4717 21.3118 23.6775 21.1477C23.8826 20.9841 24.0002 20.7395 24.0002 20.4769V6.8284C24.0003 6.35494 23.615 5.96973 23.1416 5.96973Z" fill="#233973"/>
<path d="M1.48138 16.7367V5.96973H0.85867C0.385294 5.96973 0 6.35494 0 6.8284V20.4767C0 20.7393 0.117657 20.9838 0.322749 21.1475C0.528406 21.3114 0.793619 21.3721 1.05091 21.3135C3.10829 20.8445 6.71841 20.2996 10.1427 21.138C8.16278 19.2641 5.36697 18.9326 3.67137 18.9286C2.46385 18.9256 1.48138 17.9425 1.48138 16.7367Z" fill="#233973"/>
</svg>
