<svg width="25" height="20" viewBox="0 0 25 20" fill="none" xmlns="http://www.w3.org/2000/svg">
<path d="M23.3196 2.83057L21.6372 2.83048V1.06723C21.6372 0.663536 21.3455 0.320556 20.9512 0.260829C20.8823 0.250356 19.2434 0.00932021 17.2698 0.372919C15.0697 0.778245 13.315 1.77781 12.125 3.28891C10.9348 1.77781 9.18016 0.778245 6.98009 0.372919C5.00644 0.00940202 3.36749 0.250356 3.29873 0.260829C2.90438 0.320637 2.61267 0.663618 2.61267 1.06723V2.83048H0.930331C0.485645 2.83048 0.125 3.19564 0.125 3.64596V19.0118C0.125 19.2758 0.251222 19.5235 0.463827 19.6765C0.676432 19.8295 0.948997 19.8687 1.19522 19.7818C1.25566 19.7607 7.29063 17.6753 11.7907 19.7536C12.0031 19.8517 12.2469 19.8517 12.4593 19.7536C16.9468 17.6812 22.9947 19.7608 23.0548 19.7818C23.1411 19.8123 23.2305 19.8273 23.3195 19.8273C23.4846 19.8273 23.648 19.7759 23.7862 19.6765C23.9988 19.5235 24.125 19.2759 24.125 19.0119V3.64604C24.1249 3.19572 23.7644 2.83057 23.3196 2.83057ZM1.73574 17.9207V4.46136H2.61267V15.3207C2.61267 15.5577 2.71505 15.7827 2.8921 15.9375C3.06915 16.0924 3.30463 16.1619 3.53606 16.1273C3.5805 16.1207 7.07916 15.6344 9.63527 17.4101C6.48659 16.865 3.33525 17.4955 1.73574 17.9207ZM11.3196 16.6747C10.1938 15.6448 8.7274 14.9484 6.98009 14.6265C6.1392 14.4715 5.35908 14.4264 4.73525 14.4264C4.55004 14.4264 4.37856 14.4304 4.22349 14.4367V1.81602H4.22341C5.77128 1.74533 9.53668 1.9129 11.3196 4.97313V16.6747ZM12.9303 4.97321C14.7068 1.92607 18.4781 1.7509 20.0265 1.81807V14.4367C19.3491 14.409 18.3603 14.4256 17.2698 14.6265C15.5225 14.9484 14.0561 15.6447 12.9303 16.6747V4.97321ZM14.612 17.4106C17.1684 15.6338 20.6689 16.1207 20.7126 16.1272C20.9446 16.1625 21.1799 16.0934 21.3575 15.9386C21.5351 15.7836 21.6372 15.5582 21.6372 15.3207V4.46144H22.5142V17.9207C20.9142 17.4954 17.7615 16.8645 14.612 17.4106Z" fill="#9E9E9E"/>
</svg>
