<svg width="24" height="20" viewBox="0 0 24 20" fill="none" xmlns="http://www.w3.org/2000/svg">
<path d="M22.7903 15.3712V3.70996C23.2016 3.81883 23.6129 3.95191 24 4.07286V18.7946C20.753 17.8971 17.3027 18.0753 14.1654 19.3026C16.2974 17.1469 19.202 15.932 22.2339 15.9276C22.5385 15.9212 22.7839 15.6758 22.7903 15.3712Z" fill="#233973"/>
<path d="M21.6532 0.52832L21.6895 14.875C18.1286 15.0594 14.8076 16.7265 12.5323 19.4717V5.79038C14.6096 2.73566 17.9689 0.797604 21.6532 0.52832Z" fill="#233973"/>
<path d="M1.2098 3.73438V15.3835C1.21621 15.6881 1.46162 15.9335 1.76623 15.9399C4.79135 15.9426 7.68905 17.1584 9.81055 19.3149V19.327C6.68359 18.0953 3.24199 17.9086 0.000148773 18.7947V4.09722C0.387205 3.96419 0.786395 3.83117 1.2098 3.73438Z" fill="#233973"/>
<path d="M2.29826 0.52832C5.99724 0.77084 9.37483 2.71429 11.4434 5.79038V19.4717C9.17081 16.7295 5.85486 15.0627 2.29826 14.875V0.52832Z" fill="#233973"/>
</svg>
