 <svg width="21" height="20" viewBox="0 0 21 20" fill="none" xmlns="http://www.w3.org/2000/svg">
<path fill-rule="evenodd" clip-rule="evenodd" d="M3.35055 0H6.73055C8.14055 0 9.27055 1.15 9.27055 2.561V5.97C9.27055 7.39 8.14055 8.53 6.73055 8.53H3.35055C1.95055 8.53 0.810547 7.39 0.810547 5.97V2.561C0.810547 1.15 1.95055 0 3.35055 0ZM3.35055 11.4697H6.73055C8.14055 11.4697 9.27055 12.6107 9.27055 14.0307V17.4397C9.27055 18.8497 8.14055 19.9997 6.73055 19.9997H3.35055C1.95055 19.9997 0.810547 18.8497 0.810547 17.4397V14.0307C0.810547 12.6107 1.95055 11.4697 3.35055 11.4697ZM18.2706 0H14.8906C13.4806 0 12.3506 1.15 12.3506 2.561V5.97C12.3506 7.39 13.4806 8.53 14.8906 8.53H18.2706C19.6706 8.53 20.8106 7.39 20.8106 5.97V2.561C20.8106 1.15 19.6706 0 18.2706 0ZM14.8906 11.4697H18.2706C19.6706 11.4697 20.8106 12.6107 20.8106 14.0307V17.4397C20.8106 18.8497 19.6706 19.9997 18.2706 19.9997H14.8906C13.4806 19.9997 12.3506 18.8497 12.3506 17.4397V14.0307C12.3506 12.6107 13.4806 11.4697 14.8906 11.4697Z" fill="#233973"/>
</svg>
