<svg width="20" height="20" viewBox="0 0 20 20" fill="none" xmlns="http://www.w3.org/2000/svg">
<path fill-rule="evenodd" clip-rule="evenodd" d="M0.875 4.5C0.875 1.87479 0.903109 1 4.375 1C7.84689 1 7.875 1.87479 7.875 4.5C7.875 7.12521 7.88607 8 4.375 8C0.863927 8 0.875 7.12521 0.875 4.5Z" stroke="#9E9E9E" stroke-width="1.5" stroke-linecap="round" stroke-linejoin="round"/>
<path fill-rule="evenodd" clip-rule="evenodd" d="M11.875 4.5C11.875 1.87479 11.9031 1 15.375 1C18.8469 1 18.875 1.87479 18.875 4.5C18.875 7.12521 18.8861 8 15.375 8C11.8639 8 11.875 7.12521 11.875 4.5Z" stroke="#9E9E9E" stroke-width="1.5" stroke-linecap="round" stroke-linejoin="round"/>
<path fill-rule="evenodd" clip-rule="evenodd" d="M0.875 15.5C0.875 12.8748 0.903109 12 4.375 12C7.84689 12 7.875 12.8748 7.875 15.5C7.875 18.1252 7.88607 19 4.375 19C0.863927 19 0.875 18.1252 0.875 15.5Z" stroke="#9E9E9E" stroke-width="1.5" stroke-linecap="round" stroke-linejoin="round"/>
<path fill-rule="evenodd" clip-rule="evenodd" d="M11.875 15.5C11.875 12.8748 11.9031 12 15.375 12C18.8469 12 18.875 12.8748 18.875 15.5C18.875 18.1252 18.8861 19 15.375 19C11.8639 19 11.875 18.1252 11.875 15.5Z" stroke="#9E9E9E" stroke-width="1.5" stroke-linecap="round" stroke-linejoin="round"/>
</svg>
