<svg width="14" height="14" viewBox="0 0 14 14" fill="none" xmlns="http://www.w3.org/2000/svg">
<path opacity="0.4" d="M7.65103 1.07607L9.13535 4.05892C9.24471 4.27503 9.45342 4.4251 9.69414 4.45845L13.0282 4.94403C13.2229 4.97138 13.3996 5.0741 13.519 5.23085C13.637 5.38559 13.6877 5.58169 13.659 5.77446C13.6356 5.93454 13.5603 6.08261 13.4449 6.196L11.0291 8.53786C10.8524 8.70128 10.7724 8.9434 10.815 9.18019L11.4098 12.4725C11.4732 12.8701 11.2098 13.2449 10.815 13.3203C10.6523 13.3463 10.4856 13.319 10.3389 13.2443L7.36497 11.6948C7.14426 11.5834 6.88353 11.5834 6.66282 11.6948L3.68885 13.2443C3.32343 13.4384 2.87067 13.3063 2.66729 12.9461C2.59194 12.8027 2.56527 12.6393 2.58994 12.4799L3.18474 9.18686C3.22741 8.95074 3.14673 8.70728 2.97069 8.54386L0.554841 6.20334C0.267446 5.92587 0.258777 5.46897 0.535503 5.18149C0.541504 5.17549 0.548172 5.16882 0.554841 5.16215C0.669532 5.04542 0.820231 4.97138 0.982932 4.95204L4.31698 4.46579C4.55703 4.43177 4.76574 4.28303 4.87577 4.06559L6.30674 1.07607C6.4341 0.819938 6.69816 0.660524 6.98489 0.667194H7.07424C7.32296 0.697209 7.53967 0.851287 7.65103 1.07607Z" fill="url(#paint0_linear_2070_3609)"/>
<defs>
<linearGradient id="paint0_linear_2070_3609" x1="13.6668" y1="13.3337" x2="-2.06683" y2="8.53173" gradientUnits="userSpaceOnUse">
<stop stop-color="#FB9400"/>
<stop offset="1" stop-color="#FFAB38"/>
</linearGradient>
</defs>
</svg>
