<svg width="14" height="14" viewBox="0 0 14 14" fill="none" xmlns="http://www.w3.org/2000/svg">
<path d="M7.65152 1.07607L9.13584 4.05892C9.24519 4.27503 9.45391 4.4251 9.69462 4.45845L13.0287 4.94403C13.2234 4.97138 13.4001 5.0741 13.5194 5.23085C13.6375 5.38559 13.6881 5.58169 13.6595 5.77446C13.6361 5.93454 13.5608 6.08261 13.4454 6.196L11.0296 8.53786C10.8529 8.70128 10.7729 8.9434 10.8155 9.18019L11.4103 12.4725C11.4737 12.8701 11.2103 13.2449 10.8155 13.3203C10.6528 13.3463 10.4861 13.319 10.3394 13.2443L7.36546 11.6948C7.14474 11.5834 6.88402 11.5834 6.66331 11.6948L3.68933 13.2443C3.32392 13.4384 2.87116 13.3063 2.66778 12.9461C2.59243 12.8027 2.56576 12.6393 2.59043 12.4799L3.18523 9.18686C3.2279 8.95074 3.14722 8.70728 2.97118 8.54386L0.555329 6.20334C0.267934 5.92587 0.259265 5.46897 0.535991 5.18149C0.541993 5.17549 0.548661 5.16882 0.555329 5.16215C0.67002 5.04542 0.820719 4.97138 0.983421 4.95204L4.31747 4.46579C4.55752 4.43177 4.76623 4.28303 4.87626 4.06559L6.30723 1.07607C6.43459 0.819938 6.69865 0.660524 6.98538 0.667194H7.07473C7.32345 0.697209 7.54016 0.851287 7.65152 1.07607Z" fill="#233973"/>
</svg>
