<svg width="24" height="25" viewBox="0 0 24 25" fill="none" xmlns="http://www.w3.org/2000/svg">
<g clip-path="url(#clip0_1680_5806)">
<path d="M23.5078 12.4742C23.5078 11.4909 23.4295 10.7734 23.2598 10.0293H12.2295V14.4673H18.7041C18.5736 15.5702 17.8687 17.2311 16.3022 18.3472L16.2802 18.4958L19.7678 21.246L20.0095 21.2705C22.2285 19.1844 23.5078 16.1149 23.5078 12.4742Z" fill="#4285F4"/>
<path d="M12.2296 24.1678C15.4016 24.1678 18.0645 23.1048 20.0095 21.2711L16.3023 18.3478C15.3102 19.0521 13.9787 19.5437 12.2296 19.5437C9.1228 19.5437 6.48598 17.4576 5.54603 14.5742L5.40825 14.5861L1.7818 17.443L1.73438 17.5772C3.6663 21.4837 7.63462 24.1678 12.2296 24.1678Z" fill="#34A853"/>
<path d="M5.54621 14.5738C5.2982 13.8297 5.15466 13.0324 5.15466 12.2086C5.15466 11.3847 5.2982 10.5875 5.53316 9.84342L5.52659 9.68494L1.8547 6.78223L1.73457 6.84039C0.938328 8.46149 0.481445 10.2819 0.481445 12.2086C0.481445 14.1353 0.938328 15.9556 1.73457 17.5767L5.54621 14.5738Z" fill="#FBBC05"/>
<path d="M12.2295 4.87403C14.4356 4.87403 15.9237 5.84401 16.7722 6.65461L20.0878 3.35928C18.0515 1.4326 15.4015 0.25 12.2295 0.25C7.63462 0.25 3.6663 2.93406 1.73438 6.84056L5.53297 9.84359C6.48597 6.9602 9.12279 4.87403 12.2295 4.87403Z" fill="#EB4335"/>
</g>
<defs>
<clipPath id="clip0_1680_5806">
<rect width="23.04" height="24" fill="white" transform="translate(0.480469 0.25)"/>
</clipPath>
</defs>
</svg>
