<svg width="21" height="22" viewBox="0 0 21 22" fill="none" xmlns="http://www.w3.org/2000/svg">
<path d="M7.84667 19.7714V16.7047C7.84665 15.9246 8.48257 15.2908 9.27047 15.2856H12.1565C12.9482 15.2856 13.59 15.9209 13.59 16.7047V16.7047V19.7809C13.5898 20.4432 14.1237 20.9845 14.7925 21H16.7165C18.6346 21 20.1895 19.4607 20.1895 17.5618V17.5618V8.83784C20.1792 8.09083 19.8249 7.38935 19.2274 6.93303L12.6472 1.6853C11.4944 0.771566 9.85566 0.771566 8.70287 1.6853L2.15148 6.94256C1.55171 7.39702 1.19684 8.09967 1.18945 8.84736V17.5618C1.18945 19.4607 2.74433 21 4.66236 21H6.58642C7.27181 21 7.82743 20.4499 7.82743 19.7714V19.7714" stroke="#9E9E9E" stroke-width="1.5" stroke-linecap="round" stroke-linejoin="round"/>
</svg>
