<svg width="20" height="20" viewBox="0 0 20 20" fill="none" xmlns="http://www.w3.org/2000/svg">
<path d="M6.75978 18.7733V15.7156C6.75978 14.9351 7.39717 14.3023 8.18344 14.3023H11.0576C11.4352 14.3023 11.7973 14.4512 12.0643 14.7163C12.3313 14.9813 12.4813 15.3408 12.4813 15.7156V18.7733C12.4789 19.0978 12.6071 19.4099 12.8374 19.6402C13.0677 19.8705 13.3811 20 13.7079 20H15.6688C16.5846 20.0023 17.4638 19.6428 18.1122 19.0008C18.7606 18.3588 19.125 17.487 19.125 16.5778V7.86686C19.125 7.13246 18.7971 6.43584 18.2296 5.96467L11.559 0.675869C10.3987 -0.251438 8.73611 -0.221498 7.61039 0.746979L1.09201 5.96467C0.497741 6.42195 0.142552 7.12064 0.125 7.86686V16.5689C0.125 18.4639 1.67238 20 3.58117 20H5.49729C6.17623 20 6.728 19.4562 6.73292 18.7822L6.75978 18.7733Z" fill="#233973"/>
</svg>
