<svg width="44" height="44" viewBox="0 0 44 44" fill="none" xmlns="http://www.w3.org/2000/svg">
<rect width="44" height="44" rx="22" fill="#FF9800" fill-opacity="0.08"/>
<g clip-path="url(#clip0_1680_6327)">
<path d="M44 22C44 34.1498 34.1516 44 22 44C9.84844 44 0 34.1498 0 22C0 9.85016 9.85016 0 22 0C34.1498 0 44 9.84844 44 22Z" fill="#6DA544"/>
<path d="M12.4353 26.3037C12.4353 27.8884 13.7209 29.174 15.3056 29.174H23.9148C23.9148 30.494 24.9856 31.5648 26.3056 31.5648H29.1742C30.4942 31.5648 31.565 30.494 31.565 29.174V26.3037H12.4336H12.4353Z" fill="#F0F0F0"/>
<path d="M31.8055 12.4336V19.1298C31.8055 20.1852 30.9462 21.0428 29.8926 21.0428V23.9131C32.5291 23.9131 34.6759 21.7681 34.6759 19.1298V12.4336H31.8073H31.8055Z" fill="#F0F0F0"/>
<path d="M11.2391 19.1296C11.2391 20.1849 10.3815 21.0426 9.32617 21.0426V23.9129C11.9627 23.9129 14.1077 21.7679 14.1077 19.1296V12.4351H11.2374V19.1296H11.2391Z" fill="#F0F0F0"/>
<path d="M30.3703 12.4336H27.5V19.1298H30.3703V12.4336Z" fill="#F0F0F0"/>
<path d="M23.1963 16.261C23.1963 16.5257 22.9815 16.7388 22.7185 16.7388C22.4555 16.7388 22.2407 16.524 22.2407 16.261V12.4351H19.3704V16.261C19.3704 16.5257 19.1555 16.7388 18.8926 16.7388C18.6296 16.7388 18.4147 16.524 18.4147 16.261V12.4351H15.5444V16.261C15.5444 18.1069 17.0466 19.6091 18.8926 19.6091C19.6041 19.6091 20.2624 19.3857 20.8055 19.0058C21.3487 19.3857 22.0069 19.6091 22.7185 19.6091C22.8629 19.6091 23.0021 19.5988 23.1413 19.5816C22.9385 20.4204 22.184 21.0443 21.2833 21.0443V23.9146C23.9199 23.9146 26.0666 21.7696 26.0666 19.133V12.4368H23.198V16.2627L23.1963 16.261Z" fill="#F0F0F0"/>
<path d="M19.8482 21.0444H15.5444V23.913H19.8482V21.0444Z" fill="#F0F0F0"/>
</g>
<defs>
<clipPath id="clip0_1680_6327">
<rect width="44" height="44" fill="white"/>
</clipPath>
</defs>
</svg>
