<svg width="22" height="20" viewBox="0 0 22 20" fill="none" xmlns="http://www.w3.org/2000/svg">
<path d="M1.15249 3.07715H1.53711V16.5387C1.53772 17.0485 1.74053 17.5373 2.10104 17.8978C2.46156 18.2583 2.95034 18.4612 3.46019 18.4618H18.0756C18.5854 18.4612 19.0742 18.2583 19.4347 17.8978C19.7952 17.5373 19.998 17.0485 19.9986 16.5387V3.07715H20.3833C20.6893 3.07715 20.9828 3.19871 21.1992 3.4151C21.4155 3.63149 21.5371 3.92498 21.5371 4.23099V18.8464C21.5371 19.1524 21.4155 19.4459 21.1992 19.6623C20.9828 19.8787 20.6893 20.0002 20.3833 20.0002H1.15249C0.846474 20.0002 0.55299 19.8787 0.336601 19.6623C0.120214 19.4459 -0.00135231 19.1524 -0.00135231 18.8464V4.23099C-0.00135231 3.92498 0.120214 3.63149 0.336601 3.4151C0.55299 3.19871 0.846474 3.07715 1.15249 3.07715Z" fill="white"/>
<path d="M18.0756 17.6923H11.1526V0.814231C11.4024 0.556803 11.7013 0.352103 12.0316 0.212246C12.3619 0.0723884 12.7169 0.000215994 13.0756 0H18.0756C18.3817 0 18.6752 0.121566 18.8915 0.337954C19.1079 0.554342 19.2295 0.847827 19.2295 1.15385V16.5385C19.2295 16.8445 19.1079 17.138 18.8915 17.3544C18.6752 17.5707 18.3817 17.6923 18.0756 17.6923Z" fill="white"/>
<path d="M2.30589 16.5385V1.15385C2.30589 0.847827 2.42746 0.554342 2.64384 0.337954C2.86023 0.121566 3.15372 0 3.45974 0H8.45974C8.81842 0.000144284 9.17343 0.0722464 9.50375 0.212038C9.83407 0.35183 10.133 0.556471 10.3828 0.813846V17.6923H3.45974C3.15372 17.6923 2.86023 17.5707 2.64384 17.3544C2.42746 17.138 2.30589 16.8445 2.30589 16.5385Z" fill="white"/>
</svg>
