<svg width="44" height="44" viewBox="0 0 44 44" fill="none" xmlns="http://www.w3.org/2000/svg">
<rect width="44" height="44" rx="22" fill="#FF9800" fill-opacity="0.08"/>
<g clip-path="url(#clip0_1680_6341)">
<path d="M44 22C44 34.1498 34.1516 44 22 44C9.84844 44 0 34.1498 0 22C0 9.85016 9.85016 0 22 0C34.1498 0 44 9.84844 44 22Z" fill="#F0F0F0"/>
<path d="M12.4351 29.6519L14.348 42.6319C16.7319 43.5153 19.3083 44 21.9999 44C31.4599 44 39.5243 38.029 42.6318 29.6519H12.4351Z" fill="black"/>
<path d="M12.4351 14.3481L14.348 1.36812C16.7319 0.482969 19.3083 0 21.9999 0C31.4599 0 39.5243 5.96922 42.6318 14.3481H12.4351Z" fill="#6DA544"/>
<path d="M0 22C0 31.4583 5.97094 39.5227 14.3481 42.6319V1.36816C5.97094 4.47738 0 12.54 0 22Z" fill="#A2001D"/>
</g>
<defs>
<clipPath id="clip0_1680_6341">
<rect width="44" height="44" fill="white"/>
</clipPath>
</defs>
</svg>
