<svg width="44" height="44" viewBox="0 0 44 44" fill="none" xmlns="http://www.w3.org/2000/svg">
<rect width="44" height="44" rx="22" fill="#FF9800" fill-opacity="0.08"/>
<g clip-path="url(#clip0_1680_6314)">
<path d="M44 22C44 34.1498 34.1516 44 22 44C9.84844 44 0 34.1498 0 22C0 9.85016 9.85016 0 22 0C34.1498 0 44 9.84844 44 22Z" fill="#F0F0F0"/>
<path d="M22 0C12.54 0 4.47738 5.96922 1.36816 14.3481H42.6319C39.5227 5.96922 31.46 0 22 0Z" fill="#D80027"/>
<path d="M22 44C31.46 44 39.5227 38.029 42.6319 29.6519H1.36816C4.47738 38.029 12.54 44 22 44Z" fill="black"/>
<path d="M29.6519 19.6073H23.913C23.913 18.5503 23.0553 17.6943 22 17.6943C20.9447 17.6943 20.0871 18.5503 20.0871 19.6073H14.3481C14.3481 20.6643 15.2694 21.5203 16.3247 21.5203H16.2611C16.2611 22.5773 17.117 23.4332 18.1741 23.4332C18.1741 24.4903 19.03 25.3462 20.0871 25.3462H23.913C24.97 25.3462 25.826 24.4903 25.826 23.4332C26.883 23.4332 27.7389 22.5773 27.7389 21.5203H27.6753C28.7324 21.5203 29.6519 20.6643 29.6519 19.6073Z" fill="#FF9811"/>
</g>
<defs>
<clipPath id="clip0_1680_6314">
<rect width="44" height="44" fill="white"/>
</clipPath>
</defs>
</svg>
