<svg width="31" height="30" viewBox="0 0 31 30" fill="none" xmlns="http://www.w3.org/2000/svg">
<mask id="mask0_1680_5066" style="mask-type:luminance" maskUnits="userSpaceOnUse" x="0" y="0" width="31" height="30">
<path d="M0.5 1.90735e-06H30.5V30H0.5V1.90735e-06Z" fill="white"/>
</mask>
<g mask="url(#mask0_1680_5066)">
<path d="M10.7605 2.66389L25.4267 19.1895L23.5021 21.1189L21.5772 23.0488L5.09017 8.34748C4.88257 8.1673 4.75373 7.91248 4.73093 7.63861L4.29259 2.33699C4.28222 2.21395 4.32365 2.09957 4.39736 2.01426C4.48525 1.9123 4.61908 1.85137 4.76574 1.86385L10.0508 2.30301C10.3255 2.3258 10.5803 2.45547 10.7605 2.66389Z" fill="#FF8493"/>
<path d="M10.7596 2.6641L25.4258 19.1897L23.5013 21.1191L4.39648 2.01447C4.48437 1.91252 4.6182 1.85158 4.76486 1.86406L10.0499 2.30322C10.3246 2.32602 10.5794 2.45568 10.7596 2.6641Z" fill="#EA1C81"/>
<path d="M24.709 19.9088L29.999 25.2146C30.3326 25.549 30.4991 25.9873 30.4995 26.4252C30.4991 26.8591 30.3355 27.2937 30.0082 27.626C30.0056 27.6293 30.0024 27.6326 29.9995 27.6355C29.3328 28.3038 28.2515 28.3038 27.5848 27.6355L22.2939 22.3297L23.5017 21.1195L24.709 19.9088Z" fill="#232533"/>
<path d="M24.7093 19.9088L29.9993 25.2146C30.3329 25.5489 30.4994 25.9873 30.4998 26.4252C30.4994 26.859 30.3357 27.2937 30.0084 27.626L23.502 21.1195L24.7093 19.9088Z" fill="#161826"/>
<path d="M27.7277 16.88L27.7293 16.8816C28.3964 17.5504 28.3964 18.6334 27.7293 19.3021L24.711 22.3279L21.6902 25.3562C21.0239 26.024 19.943 26.0244 19.2764 25.3578L19.2747 25.3562C18.6077 24.6874 18.6077 23.6052 19.2747 22.9365L22.2934 19.9104L25.3138 16.8816C25.98 16.2137 27.061 16.2134 27.7277 16.88Z" fill="#393C47"/>
<path d="M27.7272 16.8803L27.7288 16.8819C28.3959 17.5506 28.3959 18.6336 27.7288 19.3023L24.7105 22.3281L22.293 19.9106L25.3134 16.8819C25.9796 16.214 27.0606 16.2136 27.7272 16.8803Z" fill="#232533"/>
<path d="M25.9728 8.3642L9.44723 23.0303L7.51779 21.1058L5.58789 19.1808L20.2892 2.69379C20.4694 2.48625 20.7242 2.35735 20.9981 2.33461L26.2997 1.89621C26.4228 1.8859 26.5371 1.92733 26.6225 2.00104C26.7244 2.08887 26.7854 2.22276 26.7729 2.36936L26.3337 7.65445C26.3109 7.92914 26.1812 8.18397 25.9728 8.3642Z" fill="#00ECCE"/>
<path d="M25.9726 8.3642L9.44701 23.0303L7.51758 21.1058L26.6222 2.00104C26.7242 2.08887 26.7851 2.22276 26.7727 2.36936L26.3335 7.65445C26.3107 7.92914 26.181 8.18396 25.9726 8.3642Z" fill="#00C6CB"/>
<path d="M8.72788 22.314L3.4221 27.604C3.08776 27.9376 2.64942 28.1041 2.21149 28.1045C1.77767 28.1041 1.34302 27.9404 1.01073 27.6131C1.00745 27.6106 1.00411 27.6073 1.00124 27.6044C0.33292 26.9378 0.33292 25.8564 1.00124 25.1897L6.30702 19.8989L7.51722 21.1066L8.72788 22.314Z" fill="#232533"/>
<path d="M8.72789 22.314L3.42211 27.604C3.08777 27.9376 2.64943 28.1041 2.2115 28.1045C1.77768 28.1041 1.34303 27.9404 1.01074 27.6131L7.51723 21.1066L8.72789 22.314Z" fill="#161826"/>
<path d="M11.7567 25.332L11.7551 25.3337C11.0863 26.0008 10.0034 26.0008 9.33463 25.3337L6.30885 22.3154L3.28054 19.2945C2.61269 18.6283 2.61228 17.5474 3.2789 16.8807L3.28054 16.8791C3.94928 16.212 5.0315 16.212 5.70017 16.8791L8.72637 19.8978L11.7551 22.9182C12.423 23.5844 12.4233 24.6654 11.7567 25.332Z" fill="#393C47"/>
<path d="M11.7565 25.332L11.7548 25.3337C11.0861 26.0008 10.0031 26.0008 9.33437 25.3337L6.30859 22.3154L8.72611 19.8978L11.7548 22.9182C12.4227 23.5844 12.4231 24.6654 11.7565 25.332Z" fill="#232533"/>
</g>
</svg>
