<svg width="28" height="28" viewBox="0 0 28 28" fill="none" xmlns="http://www.w3.org/2000/svg">
<path fill-rule="evenodd" clip-rule="evenodd" d="M13.8188 25.2725C9.51168 25.2725 5.8335 24.6023 5.8335 21.918C5.8335 19.2338 9.48834 16.7559 13.8188 16.7559C18.1259 16.7559 21.8041 19.2098 21.8041 21.894C21.8041 24.5772 18.1493 25.2725 13.8188 25.2725Z" stroke="#212121" stroke-width="1.5" stroke-linecap="round" stroke-linejoin="round"/>
<path fill-rule="evenodd" clip-rule="evenodd" d="M13.8104 13.0367C16.6369 13.0367 18.9278 10.7458 18.9278 7.91927C18.9278 5.09275 16.6369 2.80078 13.8104 2.80078C10.9839 2.80078 8.69192 5.09275 8.69192 7.91927C8.68238 10.7362 10.9574 13.0271 13.7743 13.0367C13.7871 13.0367 13.7987 13.0367 13.8104 13.0367Z" stroke="#212121" stroke-width="1.5" stroke-linecap="round" stroke-linejoin="round"/>
</svg>
