<svg width="28" height="28" viewBox="0 0 28 28" fill="none" xmlns="http://www.w3.org/2000/svg">
<path fill-rule="evenodd" clip-rule="evenodd" d="M23.2683 10.1627C22.5787 10.6235 21.7679 10.8695 20.9385 10.8695C19.8269 10.8689 18.7611 10.4273 17.975 9.64152C17.1888 8.85582 16.7466 7.79021 16.7454 6.67872C16.7449 5.84934 16.9906 5.03843 17.451 4.34858C17.9115 3.65874 18.5662 3.12093 19.3322 2.80323C20.0984 2.48552 20.9416 2.40216 21.7551 2.5637C22.5687 2.72524 23.316 3.12438 23.9026 3.71074C24.4893 4.29705 24.8888 5.04417 25.0507 5.85761C25.2128 6.67105 25.1299 7.51426 24.8125 8.28053C24.4953 9.04684 23.9578 9.70182 23.2683 10.1627ZM22.0832 4.96562C21.7443 4.73923 21.346 4.61838 20.9385 4.61838V4.62518C20.3932 4.62518 19.8702 4.84133 19.4841 5.22624C19.0978 5.61114 18.8799 6.13343 18.8781 6.67868C18.8781 7.08618 18.999 7.48449 19.2254 7.82333C19.4517 8.16212 19.7736 8.42622 20.1501 8.58216C20.5265 8.7381 20.9408 8.77888 21.3404 8.69938C21.74 8.61987 22.1071 8.42365 22.3953 8.13552C22.6834 7.8474 22.8797 7.48027 22.9591 7.08062C23.0386 6.68097 22.9978 6.26672 22.8419 5.89022C22.686 5.51381 22.4219 5.19202 22.0832 4.96562ZM19.2809 17.9611C19.8039 17.7332 20.3681 17.6151 20.9386 17.6141C21.7679 17.6141 22.5788 17.8601 23.2683 18.3209C23.9579 18.7817 24.4954 19.4367 24.8126 20.203C25.1299 20.9694 25.2129 21.8125 25.0509 22.626C24.8888 23.4394 24.4893 24.1865 23.9027 24.7728C23.316 25.3592 22.5687 25.7582 21.7553 25.9198C20.9417 26.0814 20.0986 25.998 19.3324 25.6803C18.5663 25.3626 17.9115 24.8247 17.4511 24.135C16.9906 23.4451 16.7451 22.6341 16.7456 21.8048C16.7494 21.4692 16.7943 21.1355 16.8792 20.8108L12.1789 18.1822C11.7349 18.7371 11.1573 19.1701 10.5001 19.4404C9.8429 19.7107 9.1278 19.8096 8.42192 19.7278C7.71605 19.6458 7.04256 19.386 6.46466 18.9724C5.8868 18.5588 5.42349 18.0052 5.11832 17.3634C4.81311 16.7218 4.67605 16.013 4.71991 15.3037C4.76378 14.5944 4.98723 13.9079 5.3692 13.3087C5.75116 12.7095 6.27919 12.2172 6.90362 11.878C7.52806 11.5388 8.22846 11.3639 8.93906 11.3697C9.87707 11.371 10.7869 11.6903 11.5201 12.2753L14.8166 9.68295C14.9266 9.59627 15.0526 9.53211 15.1874 9.49417C15.3222 9.45618 15.4631 9.44511 15.6022 9.46165C15.7413 9.47814 15.8757 9.52187 15.9979 9.59035C16.12 9.65883 16.2276 9.7507 16.3143 9.8607C16.401 9.97071 16.465 10.0967 16.503 10.2315C16.541 10.3663 16.5521 10.5073 16.5356 10.6464C16.519 10.7854 16.4754 10.9199 16.4068 11.0421C16.3384 11.1642 16.2466 11.2717 16.1365 11.3584L12.8175 13.9711C13.0244 14.4739 13.1313 15.0122 13.1322 15.5559C13.1279 15.7838 13.1051 16.0109 13.0642 16.2352L17.898 18.9384C18.2872 18.5216 18.7579 18.1889 19.2809 17.9611ZM7.79441 17.2669C8.1332 17.4932 8.53156 17.6141 8.93906 17.6141C9.48528 17.6135 10.009 17.3962 10.3953 17.01C10.7815 16.6238 10.9988 16.1001 10.9994 15.5538C10.9994 15.1464 10.8785 14.748 10.6521 14.4093C10.4257 14.0704 10.104 13.8063 9.72747 13.6504C9.35102 13.4945 8.93677 13.4537 8.53707 13.5331C8.13743 13.6126 7.7703 13.8089 7.48217 14.097C7.19405 14.3852 6.99783 14.7522 6.91832 15.1519C6.83881 15.5516 6.87965 15.9658 7.03558 16.3423C7.19152 16.7187 7.45558 17.0405 7.79441 17.2669ZM19.7933 23.519C20.1324 23.7452 20.5309 23.8656 20.9386 23.8652C21.4844 23.8639 22.0075 23.6465 22.3932 23.2603C22.779 22.8741 22.996 22.3507 22.9965 21.8049C22.9965 21.3973 22.8756 20.9989 22.6492 20.66C22.4227 20.3211 22.1008 20.057 21.7241 19.9012C21.3475 19.7453 20.9331 19.7046 20.5334 19.7843C20.1338 19.8641 19.7666 20.0604 19.4786 20.3489C19.1905 20.6372 18.9945 21.0045 18.9152 21.4043C18.836 21.8041 18.8772 22.2185 19.0334 22.5949C19.1898 22.9714 19.4542 23.293 19.7933 23.519Z" fill="#262628"/>
</svg>
