<svg width="43" height="40" viewBox="0 0 43 40" fill="none" xmlns="http://www.w3.org/2000/svg">
<path d="M33.8303 24.834C33.2908 25.3569 33.0429 26.1132 33.1658 26.8548L35.0179 37.1048C35.1741 37.9736 34.8074 38.8527 34.0803 39.3548C33.3679 39.8757 32.4199 39.9382 31.6428 39.5215L22.4158 34.709C22.0949 34.5382 21.7387 34.4465 21.3741 34.4361H20.8095C20.6137 34.4652 20.422 34.5277 20.247 34.6236L11.0178 39.459C10.5616 39.6882 10.0449 39.7694 9.53868 39.6882C8.30534 39.4548 7.48243 38.2798 7.68451 37.0402L9.53868 26.7902C9.66159 26.0423 9.41368 25.2819 8.87409 24.7507L1.35117 17.459C0.722007 16.8486 0.503257 15.9319 0.790757 15.1048C1.06992 14.2798 1.78242 13.6777 2.64284 13.5423L12.997 12.0402C13.7845 11.959 14.4762 11.4798 14.8303 10.7715L19.3928 1.41732C19.5012 1.20898 19.6408 1.01732 19.8095 0.854818L19.997 0.708984C20.0949 0.600651 20.2074 0.511068 20.3324 0.438151L20.5595 0.354818L20.9137 0.208984H21.7908C22.5741 0.290234 23.2637 0.758985 23.6241 1.45898L28.247 10.7715C28.5803 11.4527 29.2283 11.9257 29.9762 12.0402L40.3304 13.5423C41.2054 13.6673 41.9366 14.2715 42.2262 15.1048C42.4991 15.9402 42.2637 16.8569 41.622 17.459L33.8303 24.834Z" fill="#233973" fill-opacity="0.15"/>
</svg>
