<svg width="15" height="14" viewBox="0 0 15 14" fill="none" xmlns="http://www.w3.org/2000/svg">
<path d="M11.4456 8.54699C11.2729 8.71433 11.1936 8.95633 11.2329 9.19366L11.8256 12.4737C11.8756 12.7517 11.7583 13.033 11.5256 13.1937C11.2976 13.3603 10.9943 13.3803 10.7456 13.247L7.79292 11.707C7.69026 11.6523 7.57626 11.623 7.45959 11.6197H7.27892C7.21626 11.629 7.15493 11.649 7.09893 11.6797L4.14559 13.227C3.99959 13.3003 3.83426 13.3263 3.67226 13.3003C3.27759 13.2257 3.01426 12.8497 3.07893 12.453L3.67226 9.17299C3.71159 8.93366 3.63226 8.69033 3.45959 8.52033L1.05226 6.18699C0.850925 5.99166 0.780925 5.69833 0.872925 5.43366C0.962258 5.16966 1.19026 4.97699 1.46559 4.93366L4.77892 4.45299C5.03093 4.42699 5.25226 4.27366 5.36559 4.04699L6.82559 1.05366C6.86026 0.986992 6.90493 0.925659 6.95893 0.873659L7.01892 0.826992C7.05026 0.792326 7.08626 0.763659 7.12626 0.740326L7.19893 0.713659L7.31226 0.666992H7.59293C7.84359 0.692992 8.06426 0.842992 8.17959 1.06699L9.65893 4.04699C9.76559 4.26499 9.97293 4.41633 10.2123 4.45299L13.5256 4.93366C13.8056 4.97366 14.0396 5.16699 14.1323 5.43366C14.2196 5.70099 14.1443 5.99433 13.9389 6.18699L11.4456 8.54699Z" fill="#233973"/>
</svg>
