<svg width="17" height="14" viewBox="0 0 17 14" fill="none" xmlns="http://www.w3.org/2000/svg">
<path d="M16.4295 1.88255L15.2378 1.88249V0.633515C15.2378 0.347568 15.0312 0.104624 14.7519 0.062317C14.7031 0.0548989 13.5422 -0.115835 12.1443 0.141714C10.5858 0.42882 9.34293 1.13685 8.49997 2.20721C7.65696 1.13685 6.41407 0.42882 4.85569 0.141714C3.45769 -0.115777 2.29677 0.0548989 2.24806 0.062317C1.96873 0.104682 1.7621 0.347626 1.7621 0.633515V1.88249H0.570442C0.255457 1.88249 0 2.14114 0 2.46012V13.3442C0 13.5313 0.0894071 13.7067 0.240003 13.8151C0.390598 13.9234 0.583665 13.9512 0.758072 13.8897C0.800886 13.8747 5.07566 12.3976 8.26323 13.8697C8.41366 13.9392 8.58634 13.9392 8.73677 13.8697C11.9154 12.4017 16.1993 13.8748 16.2419 13.8897C16.3031 13.9113 16.3664 13.9219 16.4294 13.9219C16.5464 13.9219 16.6621 13.8855 16.76 13.8151C16.9106 13.7067 17 13.5313 17 13.3443V2.46018C16.9999 2.1412 16.7445 1.88255 16.4295 1.88255ZM1.14094 12.5714V3.03769H1.7621V10.7297C1.7621 10.8976 1.83462 11.057 1.96003 11.1667C2.08544 11.2764 2.25223 11.3256 2.41617 11.3011C2.44765 11.2964 4.92586 10.9519 6.73644 12.2097C4.50613 11.8236 2.27393 12.2702 1.14094 12.5714ZM7.92953 11.6888C7.13208 10.9593 6.09336 10.466 4.85569 10.238C4.26006 10.1282 3.70748 10.0962 3.26559 10.0962C3.1344 10.0962 3.01294 10.0991 2.9031 10.1035V1.16391H2.90304C3.99945 1.11384 6.66661 1.23253 7.92953 3.4002V11.6888ZM9.07041 3.40026C10.3288 1.24186 13.0001 1.11778 14.0969 1.16536V10.1035C13.6171 10.084 12.9166 10.0957 12.1443 10.238C10.9066 10.466 9.86787 10.9592 9.07041 11.6888V3.40026ZM10.2616 12.2101C12.0724 10.9515 14.552 11.2964 14.5829 11.301C14.7472 11.326 14.9139 11.2771 15.0397 11.1674C15.1655 11.0576 15.2378 10.8979 15.2378 10.7297V3.03775H15.859V12.5714C14.7257 12.2701 12.4926 11.8233 10.2616 12.2101Z" fill="#233973"/>
</svg>
